<?xml version="1.0" encoding="iso-8859-1"?>
<!-- Uploaded to: SVG Repo, www.svgrepo.com, Generator: SVG Repo Mixer Tools -->
<!DOCTYPE svg PUBLIC "-//W3C//DTD SVG 1.1//EN" "http://www.w3.org/Graphics/SVG/1.1/DTD/svg11.dtd">
<svg fill="#CAFDFA" height="800px" width="800px" version="1.1" id="Capa_1" xmlns="http://www.w3.org/2000/svg" xmlns:xlink="http://www.w3.org/1999/xlink" 
	 viewBox="0 0 453.329 453.329" xml:space="preserve">
<g>
	<path d="M255.745,282.458l-29.016-23.847V200.05c0-2.424-1.972-4.395-4.396-4.395h-35.562c-2.424,0-4.395,1.972-4.395,4.395v22.109
		l-35.733-29.368c-4.252-3.494-9.914-5.418-15.942-5.418c-6.029,0-11.691,1.924-15.943,5.418L5.655,282.458
		c-4.412,3.626-6.343,7.548-5.437,11.045c0.906,3.497,4.498,5.988,10.116,7.016l17.612,3.222v136.433
		c0,5.338,4.343,9.681,9.681,9.681h186.146c5.338,0,9.681-4.343,9.681-9.681V303.74l17.612-3.222
		c5.618-1.027,9.21-3.519,10.116-7.016C262.088,290.005,260.157,286.084,255.745,282.458z M138.133,372.336
		c-0.139,0.031-0.81,0.111-0.81,1.023v9.746c0,2.666-2.225,4.834-4.96,4.834h-4.424c-2.734,0-4.956-2.168-4.956-4.834v-9.262
		c0-0.686-0.752-0.951-0.899-0.971c-0.549-0.084-12.875-2.029-19.243-5.346c-1.595-0.832-2.843-2.701-2.033-5.004l2.277-6.17
		c0.688-1.848,2.407-3.041,4.381-3.041c0.724,0,1.427,0.16,2.089,0.473c0.105,0.049,10.476,4.908,18.139,4.908
		c8.975,0,15.237-4.813,15.237-11.701c0-6.332-4.421-10.648-15.264-14.904c-13.564-5.156-26.125-12.021-26.125-27.219
		c0-12.191,8.247-21.855,21.441-24.998c0.281-0.066,1.054-0.377,1.054-1.088l-0.012-9.305c0-2.666,2.224-4.834,4.954-4.834h4.279
		c2.731,0,4.958,2.168,4.958,4.834l0.034,8.846c0,0.688,0.585,0.811,0.753,0.842c0.107,0.018,10.557,1.818,15.905,4.147
		c1.607,0.695,2.869,2.633,2.037,4.855l-2.385,6.1c-0.697,1.779-2.379,2.93-4.279,2.93c-0.779,0-1.565-0.199-2.267-0.572
		c-0.059-0.031-6.719-3.455-15.406-3.455c-9.82,0-13.302,5.371-13.302,9.971c0,5.746,3.792,8.928,16.92,14.191
		c17.254,6.816,24.619,15.387,24.619,28.65C160.846,358.892,152.187,369.177,138.133,372.336z"/>
	<path d="M451.471,236.545l-43.314-100.157c-3.502-8.105-10.24-13.542-20.209-13.542c-0.067,0-81.344-0.016-81.492-0.016
		c-8.976,0-17.076,5.321-20.635,13.557L242.51,236.545c-2.383,5.509-2.479,11.616-0.268,17.197c2.21,5.58,6.461,9.965,11.97,12.347
		c2.844,1.228,5.842,1.85,8.911,1.85c8.973,0,17.072-5.321,20.631-13.557l7.886-18.235v191.111
		c0,13.645,11.101,24.745,24.746,24.745c13.646,0,24.747-11.101,24.747-24.745V298.706h10.496v128.554
		c0,13.645,11.101,24.745,24.746,24.745c13.645,0,24.747-11.101,24.747-24.745V233.336l9.102,21.048
		c3.56,8.235,11.66,13.557,20.632,13.557c3.072,0,6.07-0.622,8.91-1.85c5.509-2.382,9.76-6.767,11.971-12.347
		C453.948,248.163,453.854,242.055,451.471,236.545z"/>
	<path d="M344.172,114.594c31.221,0,56.622-25.406,56.622-56.636c0-31.228-25.4-56.634-56.622-56.634
		c-31.228,0-56.635,25.405-56.635,56.634C287.537,89.188,312.944,114.594,344.172,114.594z"/>
</g>
</svg>