<?xml version="1.0" encoding="utf-8"?>

<!DOCTYPE svg PUBLIC "-//W3C//DTD SVG 1.1//EN" "http://www.w3.org/Graphics/SVG/1.1/DTD/svg11.dtd">
<!-- Uploaded to: SVG Repo, www.svgrepo.com, Generator: SVG Repo Mixer Tools -->
<svg height="800px" width="800px" version="1.1" id="_x32_" xmlns="http://www.w3.org/2000/svg" xmlns:xlink="http://www.w3.org/1999/xlink" 
	 viewBox="0 0 512 512"  xml:space="preserve">
<style type="text/css">
	.st0{fill:#000000;}
</style>
<g>
	<path class="st0" d="M326.527,171.735c-15.637-2.602-55.941-2.43-82.686,7.296c-26.752,9.725-75.397,40.124-89.988,44.997
		c-14.591,4.859-15.81,24.322,17.02,27.964c32.836,3.654,62.018-17.028,69.313-20.669c7.296-3.654,77.826,7.296,77.826,7.296
		l22.19,5.468l51.161,69.154c8.977-7.798,26.732-24.349,31.228-36.927c1.641-4.581,4.078-8.792,6.752-12.532l-72.49-99.977
		C347.605,169.047,336.444,173.39,326.527,171.735z"/>
	<path class="st0" d="M326.527,254.123l-10.752-1.085c-14.107-2.185-54-7.865-68.975-7.865c-0.662,0-1.185,0.007-1.576,0.026
		c-0.602,0.344-1.298,0.742-1.98,1.139c-10.625,6.19-35.524,20.681-64.52,20.681c-3.178,0-6.362-0.179-9.46-0.523
		c-4.7-0.523-8.832-1.331-12.486-2.35c3.462,1.516,6.653,3.688,9.381,6.475c4.29,4.383,6.944,9.758,7.997,15.379
		c2.496-0.669,5.084-1.04,7.732-1.04c8.116,0,15.71,3.191,21.376,8.99c5.588,5.707,8.613,13.254,8.527,21.238
		c0,0.079-0.013,0.159-0.013,0.238c8.083,0.026,15.644,3.218,21.297,8.99c5.587,5.707,8.613,13.253,8.527,21.238
		c-0.027,2.754-0.45,5.441-1.198,8.024c5.733,1.198,10.983,4.051,15.18,8.341c11.532,11.791,11.327,30.757-0.457,42.29l-5.898,5.773
		c0.026,0,0.053,0,0.079,0c9.917-0.715,18.265-6.832,20.602-16.048c4.038,3.184,9.122,5.097,14.664,5.097
		c13.095,0,23.713-10.612,23.713-23.713c0-1.377-0.139-2.714-0.371-4.026c4.171,3.635,9.606,5.852,15.571,5.852
		c13.095,0,23.714-10.619,23.714-23.713c2.807,1.172,5.885,1.827,9.116,1.827c13.101,0,23.713-10.619,23.713-23.713
		c0-9.944-4.859-16.418-16.418-29.791L326.527,254.123z"/>
	<path class="st0" d="M155.734,280.829c-5.918-6.044-15.61-6.15-21.654-0.238l-21.88,21.416c-6.044,5.912-6.15,15.604-0.238,21.648
		c5.918,6.044,15.61,6.15,21.654,0.231l21.886-21.41C161.539,296.565,161.645,286.873,155.734,280.829z"/>
	<path class="st0" d="M192.833,304.158c-5.912-6.051-15.604-6.157-21.648-0.239l-29.175,28.546
		c-6.051,5.918-6.15,15.61-0.239,21.648c5.912,6.051,15.611,6.157,21.655,0.239l29.175-28.547
		C198.645,319.894,198.751,310.202,192.833,304.158z"/>
	<path class="st0" d="M222.643,334.624c-5.912-6.044-15.604-6.157-21.648-0.238l-29.175,28.553
		c-6.044,5.911-6.15,15.603-0.238,21.654c5.912,6.038,15.604,6.144,21.655,0.225l29.175-28.546
		C228.456,350.353,228.562,340.661,222.643,334.624z"/>
	<path class="st0" d="M245.158,372.226c-5.912-6.044-15.604-6.156-21.648-0.238l-17.02,16.657
		c-6.044,5.911-6.15,15.603-0.238,21.648c5.918,6.044,15.61,6.144,21.654,0.238l17.02-16.656
		C250.971,387.963,251.07,378.271,245.158,372.226z"/>
	<path class="st0" d="M510.606,234.991l-97.792-134.866c-2.364-3.27-6.925-3.991-10.189-1.628l-43.315,31.412
		c-3.264,2.363-3.992,6.925-1.622,10.188L455.48,274.97c2.363,3.264,6.925,3.992,10.188,1.622l43.323-31.406
		C512.248,242.815,512.977,238.254,510.606,234.991z M477.334,247.106c-5.435,3.945-13.042,2.727-16.987-2.708
		c-3.939-5.435-2.728-13.035,2.714-16.98c5.435-3.946,13.035-2.728,16.981,2.701C483.98,235.56,482.769,243.167,477.334,247.106z"/>
	<path class="st0" d="M144.784,261.63c2.304,0,4.555,0.292,6.739,0.788c-18.384-7.05-21.429-19.946-21.906-24.494
		c-1.298-12.248,6.587-23.402,19.622-27.745c5.243-1.748,18.986-9.242,32.28-16.484c14.26-7.779,29.91-16.312,43.521-22.589
		c-17.252-1.396-33.419-0.807-42.051,0.629c-9.295,1.549-19.675-2.164-28.553-6.944l-73.06,100.752
		c2.191,3.29,4.157,6.892,5.54,10.771c2.046,5.72,6.839,12.26,12.3,18.43c0.854-1.099,1.761-2.172,2.781-3.171l21.879-21.416
		C129.498,264.662,136.926,261.63,144.784,261.63z"/>
	<path class="st0" d="M152.695,129.902l-43.323-31.406c-3.257-2.363-7.818-1.642-10.188,1.628L1.391,234.991
		c-2.37,3.263-1.635,7.824,1.622,10.195l43.316,31.406c3.264,2.37,7.825,1.642,10.189-1.629l97.793-134.866
		C156.68,136.834,155.952,132.272,152.695,129.902z M123.745,144.97c-3.939,5.428-11.546,6.646-16.981,2.701
		c-5.442-3.94-6.654-11.546-2.708-16.981c3.939-5.435,11.546-6.653,16.981-2.708C126.479,131.928,127.684,139.528,123.745,144.97z"
		/>
</g>
</svg>