<!DOCTYPE svg PUBLIC "-//W3C//DTD SVG 1.1//EN" "http://www.w3.org/Graphics/SVG/1.1/DTD/svg11.dtd">
<!-- Uploaded to: SVG Repo, www.svgrepo.com, Transformed by: SVG Repo Mixer Tools -->
<svg width="800px" height="800px" viewBox="0 0 24 24" id="Layer_1" data-name="Layer 1" xmlns="http://www.w3.org/2000/svg" fill="#000000">
<g id="SVGRepo_bgCarrier" stroke-width="0"/>
<g id="SVGRepo_tracerCarrier" stroke-linecap="round" stroke-linejoin="round"/>
<g id="SVGRepo_iconCarrier">
<defs>
<style>.cls-1{fill:none;stroke:#ffffff;stroke-miterlimit:10;stroke-width:1.91px;}</style>
</defs>
<path class="cls-1" d="M3.41,12H20.59a1.91,1.91,0,0,1,1.91,1.91v3.82a0,0,0,0,1,0,0H1.5a0,0,0,0,1,0,0V13.93A1.91,1.91,0,0,1,3.41,12Z"/>
<path class="cls-1" d="M4.36,4.39H19.64A1.91,1.91,0,0,1,21.55,6.3V12a0,0,0,0,1,0,0H2.45a0,0,0,0,1,0,0V6.3A1.91,1.91,0,0,1,4.36,4.39Z"/>
<path class="cls-1" d="M7.23,8.2h2.86A1.91,1.91,0,0,1,12,10.11V12a0,0,0,0,1,0,0H5.32a0,0,0,0,1,0,0V10.11A1.91,1.91,0,0,1,7.23,8.2Z"/>
<path class="cls-1" d="M13.91,8.2h2.86a1.91,1.91,0,0,1,1.91,1.91V12a0,0,0,0,1,0,0H12a0,0,0,0,1,0,0V10.11A1.91,1.91,0,0,1,13.91,8.2Z"/>
<line class="cls-1" x1="2.45" y1="20.61" x2="2.45" y2="17.75"/>
<line class="cls-1" x1="21.55" y1="20.61" x2="21.55" y2="17.75"/>
</g>
</svg>