<?xml version="1.0" encoding="UTF-8" standalone="no"?>
<!-- Created with Inkscape (http://www.inkscape.org/) -->

<svg
   version="1.1"
   id="svg2"
   width="1856.4268"
   height="388.57333"
   viewBox="0 0 1856.4268 388.57333"
   sodipodi:docname="edenlogoandtitle.eps"
   xmlns:inkscape="http://www.inkscape.org/namespaces/inkscape"
   xmlns:sodipodi="http://sodipodi.sourceforge.net/DTD/sodipodi-0.dtd"
   xmlns="http://www.w3.org/2000/svg"
   xmlns:svg="http://www.w3.org/2000/svg">
  <defs
     id="defs6" />
  <sodipodi:namedview
     id="namedview4"
     pagecolor="#ffffff"
     bordercolor="#000000"
     borderopacity="0.25"
     inkscape:showpageshadow="2"
     inkscape:pageopacity="0.0"
     inkscape:pagecheckerboard="0"
     inkscape:deskcolor="#d1d1d1" />
  <g
     id="g8"
     inkscape:groupmode="layer"
     inkscape:label="ink_ext_XXXXXX"
     transform="matrix(1.3333333,0,0,-1.3333333,0,388.57333)">
    <g
       id="g10"
       transform="scale(0.1)">
      <path
         d="m 1674.47,2558.94 c 0,-279.69 -313.42,-599.5 -775.704,-818.06 C 661.223,1628.52 384.41,1542.98 90.5586,1503.41 191.328,1718.28 417.031,2075.97 863.004,2281.24 853.398,2279.18 275.184,2151.24 0,1606.41 c 26.0977,340.1 172.539,661.6 414.977,910.25 20,20.59 40.718,40.71 62.105,60.28 238.027,211.13 530.968,337.39 812.858,337.39 213.62,0 384.53,-134.77 384.53,-355.39"
         style="fill:#ffffff;fill-opacity:1;fill-rule:nonzero;stroke:none"
         id="path12" />
      <path
         d="m 2187.62,2851.65 c 30.12,-87.47 45.55,-178.97 45.55,-271.17 C 2233.17,1824.66 1151.34,1125.57 68.293,1030.77 98.418,941.41 137.359,855.109 184.629,772.84 344.809,563.141 598.305,438.781 868.211,437.602 1136.4,436.18 1397,524.129 1605.68,686.789 v -0.008 C 1766.8,446.852 1668.99,115.082 1399.85,9.76172 c -2.5,-0.97266 -5,-1.94141 -7.5,-2.91016 C 1441.09,2.60156 1490.07,0 1539.79,0 c 855.03,0 1548.17,668.582 1548.41,1493.91 0,583.48 -351.46,1113.52 -900.34,1357.5 l -0.24,0.24"
         style="fill:#ffffff;fill-opacity:1;fill-rule:nonzero;stroke:none"
         id="path14" />
      <path
         d="m 4698.54,750.27 c 0,-6.969 -4.89,-10.418 -14.59,-10.418 H 3623.08 c -11.14,0 -17.04,5.207 -17.72,15.628 -0.72,10.418 4.49,16.309 15.63,17.711 16.67,2.77 32.99,4.86 48.98,6.258 15.96,1.36 29.86,4.852 41.69,10.422 11.78,5.539 21.16,14.91 28.13,28.141 6.93,13.179 10.42,32.976 10.42,59.386 V 1907.02 c 0,27.78 -3.49,48.26 -10.42,61.48 -6.97,13.19 -16.35,22.21 -28.13,27.09 -11.83,4.86 -25.73,7.98 -41.69,9.39 -15.99,1.36 -32.31,3.45 -48.98,6.25 -11.14,2.77 -16.35,9.38 -15.63,19.8 0.68,10.42 6.58,15.63 17.72,15.63 h 1012.93 c 9.71,0 14.59,-3.48 14.59,-10.42 l 12.51,-218.85 c 0,-8.33 -5.58,-13.22 -16.68,-14.58 -11.14,-1.41 -18.07,2.76 -20.84,12.5 -8.34,33.35 -18.43,61.81 -30.22,85.45 -11.82,23.62 -28.5,42.73 -50.03,57.32 -21.55,14.59 -50.02,25.01 -85.45,31.26 -35.43,6.25 -80.24,9.38 -134.43,9.38 h -327.23 c -26.41,0 -48.65,-5.57 -66.69,-16.67 -18.07,-11.14 -27.1,-34.75 -27.1,-70.86 v -525.23 h 414.76 c 31.95,0 58.37,3.81 79.21,11.46 20.84,7.62 37.15,17.72 48.97,30.22 11.8,12.51 20.13,26.74 25.02,42.73 4.85,15.96 7.98,31.59 9.38,46.89 1.36,11.11 7.61,16.32 18.75,15.64 11.11,-0.72 16.68,-6.61 16.68,-17.72 v -304.3 c 0,-11.13 -5.57,-17.03 -16.68,-17.71 -11.14,-0.72 -17.39,4.49 -18.75,15.63 -1.4,16.67 -4.53,32.63 -9.38,47.94 -4.89,15.27 -13.22,29.17 -25.02,41.68 -11.82,12.5 -28.13,22.57 -48.97,30.22 -20.84,7.62 -47.26,11.46 -79.21,11.46 H 3904.44 V 873.238 c 0,-31.976 7.3,-53.859 21.89,-65.648 14.59,-11.828 32.99,-19.121 55.23,-21.891 h 414.77 c 54.18,0 97.6,3.121 130.26,9.383 32.63,6.25 58.68,16.668 78.16,31.258 19.44,14.59 33.67,33.68 42.72,57.32 9.02,23.61 17.72,52.102 26.05,85.449 2.78,9.7 9.38,14.243 19.81,13.551 10.42,-0.719 15.63,-5.93 15.63,-15.629 L 4698.54,750.27"
         style="fill:#ffffff;fill-opacity:1;fill-rule:nonzero;stroke:none"
         id="path16" />
      <path
         d="m 4948.63,1208.8 c -1.4,-55.59 4.49,-109.78 17.71,-162.57 13.19,-52.82 33.68,-99.718 61.49,-140.691 27.78,-41 63.89,-73.988 108.38,-99 44.45,-25.008 96.56,-37.519 156.32,-37.519 33.34,0 65.29,5.218 95.87,15.64 30.55,10.422 57.64,24.289 81.29,41.68 23.61,17.359 42.72,36.48 57.31,57.32 14.6,20.84 21.88,41.68 21.88,62.52 v 427.27 c 0,52.79 -7.64,97.25 -22.92,133.39 -15.3,36.12 -35.43,64.94 -60.44,86.5 -25.01,21.53 -53.15,36.8 -84.41,45.85 -31.26,9.02 -62.89,13.55 -94.84,13.55 -51.41,0 -97.63,-12.86 -138.6,-38.56 -40.99,-25.72 -76.07,-59.4 -105.25,-101.09 -29.18,-41.68 -51.78,-88.93 -67.74,-141.72 -15.99,-52.82 -24.69,-107.01 -26.05,-162.57 z m 600.25,-373.081 c -73.65,-83.367 -180.63,-125.047 -320.97,-125.047 -68.09,0 -129.22,12.5 -183.4,37.508 -54.19,25.011 -100.05,59.41 -137.56,103.172 -37.52,43.769 -66.02,95.519 -85.46,155.278 -19.47,59.73 -29.18,123.65 -29.18,191.75 0,72.23 11.11,138.93 33.35,200.08 22.21,61.13 53.84,114.28 94.83,159.45 40.97,45.13 90.99,80.56 150.07,106.29 59.04,25.7 125.38,38.56 199.04,38.56 63.9,0 119.48,-10.78 166.74,-32.31 47.22,-21.55 84.74,-50.38 112.54,-86.49 v 393.92 c 0,27.78 -1.04,49.3 -3.12,64.61 -2.09,15.28 -7.29,26.38 -15.63,33.35 -8.34,6.93 -19.8,10.75 -34.39,11.46 -14.59,0.69 -34.39,1.04 -59.4,1.04 -11.14,0 -17.72,5.21 -19.8,15.63 -2.09,10.43 5.21,17.73 21.89,21.89 38.88,11.11 78.15,22.93 117.75,35.43 39.6,12.51 76.76,27.1 111.51,43.77 5.53,2.77 11.11,3.45 16.67,2.08 5.54,-1.39 8.34,-5.56 8.34,-12.5 V 856.559 c 0,-27.809 9.71,-46.207 29.18,-55.227 19.45,-9.051 44.45,-14.953 75.03,-17.711 15.28,-1.41 22.57,-6.609 21.88,-15.641 -0.71,-9.05 -8.01,-14.261 -21.88,-15.628 L 5590.57,729.43 c -16.67,-2.77 -27.81,-0.692 -33.35,6.25 -5.56,6.929 -8.34,18.039 -8.34,33.34 v 66.699"
         style="fill:#ffffff;fill-opacity:1;fill-rule:nonzero;stroke:none"
         id="path18" />
      <path
         d="m 7947.88,747.23 c 0,-10.5 -5.59,-15.75 -16.79,-15.75 h -143.77 c -57.03,0 -92.71,13.29 -107.4,39.711 -14.52,26.231 -21.86,58.239 -21.86,95.848 v 558.491 c 0,63.84 -20.81,111.94 -62.45,143.78 -41.62,32.01 -91.12,50.02 -147.97,54.22 -80.63,0 -147.97,-22.21 -202.2,-66.64 -46,-37.61 -87.63,-83.44 -125.06,-137.13 V 871.23 c 0,-27.8 3.5,-48.449 10.5,-61.558 6.82,-13.293 16.27,-22.223 27.98,-27.113 11.9,-4.899 25.71,-8.047 41.81,-9.45 15.91,-1.398 32.88,-3.32 51.07,-6.117 9.62,-2.801 14.52,-9.453 14.52,-19.762 0,-10.5 -5.6,-15.75 -16.62,-15.75 h -402.29 c -11.2,0 -16.62,5.25 -16.62,15.75 0,10.309 4.72,16.961 14.52,19.762 18.02,2.797 35.16,4.719 51.07,6.117 15.92,1.403 29.91,4.551 41.63,9.45 11.9,4.89 21.17,13.82 28.16,27.113 7,13.109 10.5,33.758 10.5,61.558 v 600.12 c 0,27.82 -1.05,49.33 -3.15,64.72 -2.1,15.22 -7.35,26.41 -15.57,33.24 -8.39,6.99 -19.94,10.84 -34.46,11.54 -14.69,0.7 -34.45,1.05 -59.47,1.05 -11.02,0 -17.66,5.25 -19.76,15.56 -2.1,10.5 5.25,17.84 21.86,21.87 37.61,11.19 76.44,22.91 116.67,35.5 40.4,12.42 77.83,27.12 112.64,43.73 5.6,2.8 11.02,3.5 16.62,2.1 5.59,-1.4 8.39,-5.59 8.39,-12.42 v -156.37 c 40.23,50.03 86.76,90.96 139.58,122.96 52.83,32.01 115.44,47.93 187.68,47.93 44.43,1.4 87.81,-3.5 130.31,-14.52 42.33,-11.19 80.11,-28.16 113.51,-51.07 33.41,-22.92 60,-52.12 80.29,-87.63 20.11,-35.33 30.08,-76.79 30.08,-124.01 v -554.3 c 0,-27.8 3.5,-48.449 10.5,-61.558 7,-13.293 16.27,-22.223 28.16,-27.113 11.72,-4.899 25.71,-8.047 41.63,-9.45 15.92,-1.398 33.06,-3.32 51.07,-6.117 9.8,-2.801 14.69,-9.453 14.69,-19.762"
         style="fill:#ffffff;fill-opacity:1;fill-rule:nonzero;stroke:none"
         id="path20" />
      <path
         d="m 8919.05,773.191 c 11.1,-1.402 16.31,-7.293 15.62,-17.711 -0.71,-10.421 -6.6,-15.628 -17.71,-15.628 h -410.59 c -11.14,0 -17.04,5.207 -17.72,15.628 -0.72,10.418 4.5,16.309 15.63,17.711 16.67,2.77 32.99,4.86 48.98,6.258 15.96,1.36 29.86,4.852 41.69,10.422 11.78,5.539 21.16,14.91 28.13,28.141 6.94,13.179 10.42,32.976 10.42,59.386 V 1907.02 c 0,27.78 -3.48,48.26 -10.42,61.48 -6.97,13.19 -16.35,22.21 -28.13,27.09 -11.83,4.86 -25.73,7.98 -41.69,9.39 -15.99,1.36 -32.31,3.45 -48.98,6.25 -11.13,2.77 -16.35,9.38 -15.63,19.8 0.68,10.42 6.58,15.63 17.72,15.63 h 410.59 c 11.11,0 17,-5.21 17.71,-15.63 0.69,-10.42 -4.52,-17.03 -15.62,-19.8 -18.08,-2.8 -35.11,-4.89 -51.07,-6.25 -15.99,-1.41 -29.9,-4.53 -41.68,-9.39 -11.83,-4.88 -21.21,-13.9 -28.14,-27.09 -6.97,-13.22 -10.43,-33.7 -10.43,-61.48 v -464.79 h 783.68 v 464.79 c 0,27.78 -3.48,48.26 -10.43,61.48 -6.97,13.19 -16.35,22.21 -28.13,27.09 -11.82,4.86 -25.73,7.98 -41.69,9.39 -15.98,1.36 -32.3,3.45 -48.98,6.25 -11.13,2.77 -16.34,9.38 -15.63,19.8 0.69,10.42 6.58,15.63 17.72,15.63 h 410.59 c 11.11,0 17,-5.21 17.72,-15.63 0.68,-10.42 -4.53,-17.03 -15.63,-19.8 -18.07,-2.8 -35.11,-4.89 -51.07,-6.25 -15.98,-1.41 -29.9,-4.53 -41.68,-9.39 -11.82,-4.88 -21.2,-13.9 -28.13,-27.09 -6.98,-13.22 -10.43,-33.7 -10.43,-61.48 V 877.398 c 0,-26.41 3.45,-46.207 10.43,-59.386 6.93,-13.231 16.31,-22.602 28.13,-28.141 11.78,-5.57 25.7,-9.062 41.68,-10.422 15.96,-1.398 33,-3.488 51.07,-6.258 11.1,-1.402 16.31,-7.293 15.63,-17.711 -0.72,-10.421 -6.61,-15.628 -17.72,-15.628 h -410.59 c -11.14,0 -17.03,5.207 -17.72,15.628 -0.71,10.418 4.5,16.309 15.63,17.711 16.68,2.77 33,4.86 48.98,6.258 15.96,1.36 29.87,4.852 41.69,10.422 11.78,5.539 21.16,14.91 28.13,28.141 6.95,13.179 10.43,32.976 10.43,59.386 V 1394.3 H 8787.73 V 877.398 c 0,-26.41 3.46,-46.207 10.43,-59.386 6.93,-13.231 16.31,-22.602 28.14,-28.141 11.78,-5.57 25.69,-9.062 41.68,-10.422 15.96,-1.398 32.99,-3.488 51.07,-6.258"
         style="fill:#ffffff;fill-opacity:1;fill-rule:nonzero;stroke:none"
         id="path22" />
      <path
         d="m 10396.8,1658.99 c -72.3,0 -132.7,-22.6 -181.4,-67.73 -48.6,-45.17 -84.7,-101.09 -108.3,-167.79 -23.7,-66.69 -35.5,-139.64 -35.5,-218.84 0,-79.2 12.2,-152.15 36.5,-218.841 24.3,-66.699 60.4,-122.648 108.4,-167.777 47.9,-45.172 108,-67.742 180.3,-67.742 72.2,0 132.3,22.57 180.2,67.742 48,45.129 84.1,101.078 108.4,167.777 24.3,66.691 36.5,139.641 36.5,218.841 0,79.2 -11.8,152.15 -35.4,218.84 -23.7,66.7 -59.8,122.62 -108.4,167.79 -48.7,45.13 -109.1,67.73 -181.3,67.73 z m 0,41.69 c 106.9,0 196.2,-24.69 267.8,-73.99 71.5,-49.34 125.4,-110.47 161.5,-183.42 36.1,-72.94 54.2,-152.5 54.2,-238.64 0,-86.17 -18.1,-165.7 -54.2,-238.642 -36.1,-72.949 -90,-134.109 -161.5,-183.418 -71.6,-49.328 -160.9,-73.988 -267.8,-73.988 -107.1,0 -196.3,24.66 -267.9,73.988 -71.5,49.309 -125,110.469 -160.45,183.418 -35.43,72.942 -53.15,152.472 -53.15,238.642 0,86.14 17.72,165.7 53.15,238.64 35.45,72.95 88.95,134.08 160.45,183.42 71.6,49.3 160.8,73.99 267.9,73.99"
         style="fill:#ffffff;fill-opacity:1;fill-rule:nonzero;stroke:none"
         id="path24" />
      <path
         d="m 11757.7,889.91 c -37.5,-58.359 -88.2,-102.129 -152.1,-131.301 -64,-29.179 -129.2,-43.769 -195.9,-43.769 -43.1,0 -84.5,5.922 -124.1,17.711 -39.6,11.789 -75,29.179 -106.3,52.109 -31.2,22.93 -56.2,51.75 -75,86.488 -18.7,34.723 -28.1,75.032 -28.1,120.891 v 477.291 c 0,27.78 -1.4,49.3 -4.2,64.61 -2.8,15.27 -8,26.38 -15.6,33.35 -7.7,6.93 -18.8,10.74 -33.4,11.46 -14.6,0.68 -34.4,1.04 -59.4,1.04 -11.1,0 -17.7,5.21 -19.8,15.63 -2.1,10.42 5.2,17.72 21.9,21.89 37.5,11.1 76.1,22.93 115.7,35.43 39.6,12.51 76.7,27.09 111.5,43.77 16.7,8.34 25,4.85 25,-10.42 V 992.039 c 0,-68.098 23.6,-118.117 70.9,-150.07 47.2,-31.981 101.4,-47.93 162.5,-47.93 36.2,0 72.6,5.531 109.5,16.672 36.8,11.109 69.8,27.418 99,48.98 29.1,21.528 52.8,48.258 70.8,80.239 18.1,31.949 27.1,68.78 27.1,110.47 v 418.93 c 0,27.78 -1.4,49.3 -4.1,64.61 -2.9,15.27 -8.1,26.38 -15.7,33.35 -7.6,6.93 -18.7,10.74 -33.3,11.46 -14.6,0.68 -34.4,1.04 -59.4,1.04 -11.2,0 -17.7,5.21 -19.8,15.63 -2.1,10.42 5.2,17.72 21.9,21.89 37.5,11.1 76,22.93 115.6,35.43 39.6,12.51 76.8,27.09 111.5,43.77 16.7,8.34 25,4.85 25,-10.42 V 856.559 c 0,-27.809 9.8,-46.207 29.2,-55.227 19.5,-9.051 45.2,-14.953 77.1,-17.711 15.3,-1.41 22.6,-6.609 21.9,-15.641 -0.7,-9.05 -8,-14.261 -21.9,-15.628 l -208.4,-22.922 c -16.7,-2.77 -27.4,-0.692 -32.3,6.25 -4.9,6.929 -7.3,18.039 -7.3,33.34 v 120.89"
         style="fill:#ffffff;fill-opacity:1;fill-rule:nonzero;stroke:none"
         id="path26" />
      <path
         d="m 12883.2,994.121 c 0,-54.191 -11.5,-99.359 -34.4,-135.473 -22.9,-36.148 -52.8,-65.66 -89.6,-88.578 -36.9,-22.929 -77.9,-39.281 -123,-48.98 -45.2,-9.711 -90.7,-14.59 -136.5,-14.59 -70.9,0 -139.3,12.18 -205.3,36.469 -66,24.301 -122.7,58.691 -169.9,103.172 -11.1,11.109 -14.6,21.168 -10.4,30.23 4.2,9.02 11.8,13.539 22.9,13.539 8.4,0 15.3,-2.801 20.9,-8.34 34.7,-30.582 80.9,-57.308 138.6,-80.238 57.6,-22.922 128.1,-34.391 211.5,-34.391 82,0 144.9,19.438 188.6,58.36 43.8,38.89 65.7,81.281 65.7,127.14 0,29.18 -8.7,54.509 -26.1,76.069 -17.3,21.53 -38.9,39.93 -64.6,55.23 -25.7,15.28 -53.5,28.14 -83.3,38.56 -29.9,10.42 -56.7,19.8 -80.3,28.14 -37.5,12.51 -77.5,25.01 -119.8,37.52 -42.4,12.5 -81,28.82 -115.7,48.98 -34.7,20.12 -63.6,46.17 -86.5,78.15 -22.9,31.95 -34.4,73.64 -34.4,125.06 0,47.22 9.7,87.54 29.2,120.88 19.4,33.35 44.8,60.45 76.1,81.29 31.2,20.84 67,35.76 107.3,44.81 40.3,9.02 80.6,13.55 120.9,13.55 66.7,-1.4 123.3,-9.06 169.9,-22.93 46.5,-13.9 87.1,-38.23 121.9,-72.95 22.2,-22.24 36.1,-43.08 41.7,-62.53 5.5,-19.47 5.9,-36.47 1,-51.06 -4.9,-14.59 -13.5,-26.41 -26,-35.43 -12.5,-9.05 -26.5,-13.55 -41.7,-13.55 -15.3,0 -29.6,5.21 -42.8,15.63 -13.2,10.42 -23.2,27.42 -30.2,51.07 -11.1,44.45 -31.6,78.48 -61.5,102.12 -29.9,23.62 -73.9,35.44 -132.3,35.44 -69.5,0 -122.3,-15.99 -158.4,-47.94 -36.2,-31.98 -54.2,-67.41 -54.2,-106.3 0,-31.98 9.4,-58.71 28.1,-80.24 18.8,-21.56 42.1,-39.6 69.9,-54.19 27.7,-14.59 57.3,-26.41 88.5,-35.43 31.3,-9.05 59.4,-17.72 84.5,-26.05 37.5,-12.51 76.4,-26.06 116.7,-40.65 40.3,-14.59 77.1,-33.34 110.4,-56.27 33.4,-22.93 60.5,-50.74 81.3,-83.37 20.9,-32.66 31.3,-73.31 31.3,-121.929"
         style="fill:#ffffff;fill-opacity:1;fill-rule:nonzero;stroke:none"
         id="path28" />
      <path
         d="m 13502.2,1642.32 c -101.5,-2.8 -176.5,-38.23 -225.1,-106.3 -48.7,-68.09 -76.5,-157.72 -83.4,-268.86 h 481.5 c 40.2,0 68.7,8.66 85.4,26.05 16.7,17.36 25,43.41 25,78.16 0,34.72 -5.9,68.42 -17.7,101.08 -11.8,32.63 -29.9,61.49 -54.2,86.5 -24.3,25.01 -54.2,45.14 -89.6,60.44 -35.4,15.28 -76.1,22.93 -121.9,22.93 z M 13894,908.672 c -32,-58.363 -82,-104.57 -150.1,-138.602 C 13675.8,736 13599.4,719 13514.7,719 c -58.4,0 -116.1,8.699 -173,26.059 -57,17.351 -108.4,45.492 -154.2,84.41 -45.9,38.883 -83.1,89.261 -111.6,151.113 -28.4,61.808 -43.4,137.198 -44.8,226.128 -1.4,73.63 8.4,140.69 29.2,201.13 20.9,60.44 50.7,112.55 89.6,156.32 38.9,43.77 86.9,77.8 143.9,102.13 56.9,24.29 120.8,36.47 191.7,36.47 63.9,0 122.6,-10.09 176.1,-30.22 53.5,-20.16 99.7,-48.65 138.6,-85.45 38.9,-36.83 69.1,-81.65 90.7,-134.44 21.5,-52.82 32.3,-111.86 32.3,-177.16 0,-18.07 -5.6,-33.7 -16.7,-46.89 -11.1,-13.22 -28.5,-19.8 -52.1,-19.8 h -664.9 c 0,-77.83 10.5,-144.17 31.3,-199.04 20.8,-54.908 47.9,-99.362 81.3,-133.389 33.3,-34.07 71.5,-59.082 114.6,-75.039 43.1,-15.992 86.8,-23.281 131.3,-21.883 61.2,1.36 117.4,14.231 168.9,38.563 51.3,24.289 93,63.558 125,117.75 8.3,13.879 18.8,20.847 31.3,20.847 9.7,0 17.3,-4.89 22.9,-14.589 5.5,-9.739 4.8,-20.84 -2.1,-33.348"
         style="fill:#ffffff;fill-opacity:1;fill-rule:nonzero;stroke:none"
         id="path30" />
      <path
         d="m 6071.25,1134.72 c 32.54,64.19 99,160.04 221.96,216.72 -2.79,-0.53 -166.34,-36.73 -249.59,-189.08 0.87,61.74 12.77,123.31 38.3,179.63 22.04,48.45 52.65,93.23 90.61,132.06 6.12,6.3 12.59,12.77 19.41,18.89 76.61,68.04 170.72,106.87 258.35,106.87 81.33,0 140.27,-55.27 140.27,-131.53 0,-62.8 -43.55,-131.01 -122.26,-191.88 l -0.7,-0.7 c -2.27,-1.57 -4.55,-3.15 -6.82,-4.72 -99.17,-68.56 -229.66,-117.02 -358.22,-132.41 l -30.78,-3.85 z m 452.5,65.24 c 115.96,82.91 179.81,180.51 179.81,274.79 0,24.31 -4.2,48.45 -12.07,71.71 -44.26,117.02 -188.56,142.55 -190.13,142.73 -17.14,3.5 -33.93,5.07 -51.07,5.07 -57.2,0 -114.92,-12.07 -171.77,-35.86 -53.52,-22.38 -103.55,-54.22 -149.02,-94.45 l -1.23,-1.22 c -8.22,-7.35 -15.91,-15.05 -23.43,-22.74 -45.48,-46.7 -82.04,-100.05 -108.97,-158.82 -20.47,-45.12 -34.99,-92.7 -42.68,-141.5 l -0.18,-0.7 v -0.18 c -2.27,-14.34 -3.85,-28.85 -5.07,-43.37 l -1.22,-17.49 V 1176 l -0.18,-0.52 c -1.57,-37.43 0,-94.11 15.22,-154.8 38.48,-153.399 165.46,-266.91 323.41,-289.481 30.43,-4.187 59.47,-6.469 86.58,-6.469 37.08,0 70.66,4.2 99.52,12.418 0.71,0.184 1.4,0.352 2.1,0.532 29.91,11.711 52.65,36.379 62.27,67.332 7.35,23.269 6.65,47.578 -1.22,69.789 -60.87,-39.531 -133.28,-61.039 -207.1,-61.039 h -2.27 c -80.63,0.347 -157.25,34.629 -210.07,94.097 -8.75,9.801 -16.44,20.993 -22.74,33.063 -11.37,21.508 -20.81,43.726 -28.51,66.468 l -10.67,31.48 33.24,2.97 c 157.07,13.82 316.41,71.37 437.45,158.12"
         style="fill:#ffffff;fill-opacity:1;fill-rule:nonzero;stroke:none"
         id="path32" />
    </g>
  </g>
</svg>
