<!DOCTYPE svg PUBLIC "-//W3C//DTD SVG 1.1//EN" "http://www.w3.org/Graphics/SVG/1.1/DTD/svg11.dtd">
<!-- Uploaded to: SVG Repo, www.svgrepo.com, Transformed by: SVG Repo Mixer Tools -->
<svg fill="#ffffff" height="800px" width="800px" version="1.1" id="Layer_1" xmlns="http://www.w3.org/2000/svg" xmlns:xlink="http://www.w3.org/1999/xlink" viewBox="0 0 512.001 512.001" xml:space="preserve" stroke="#ffffff">
<g id="SVGRepo_bgCarrier" stroke-width="0"/>
<g id="SVGRepo_tracerCarrier" stroke-linecap="round" stroke-linejoin="round"/>
<g id="SVGRepo_iconCarrier"> <g> <g> <path d="M225.911,53.362L179.365,6.817c-9.087-9.089-23.824-9.089-32.912,0L99.907,53.362c-9.089,9.087-9.089,23.824,0,32.912 c9.089,9.087,23.825,9.087,32.912,0l30.09-30.09L193,86.274c4.543,4.544,10.499,6.817,16.455,6.817 c5.956,0,11.913-2.273,16.455-6.817C234.999,77.187,234.999,62.451,225.911,53.362z"/> </g> </g> <g> <g> <path d="M412.092,6.817c-9.087-9.089-23.823-9.089-32.912,0l-30.089,30.09l-30.09-30.09c-9.087-9.089-23.824-9.089-32.912,0 c-9.089,9.087-9.089,23.824,0,32.912l46.545,46.545c4.544,4.544,10.501,6.817,16.457,6.817c5.956,0,11.912-2.273,16.455-6.817 l46.545-46.545C421.181,30.642,421.181,15.905,412.092,6.817z"/> </g> </g> <g> <g> <path d="M412.092,146.453c-4.364-4.364-10.285-6.816-16.457-6.816l-139.365,0.014c-0.091-0.003-0.18-0.014-0.27-0.014 c-0.092,0-0.178,0.012-0.27,0.014l-139.368,0.014c-12.853,0-23.271,10.418-23.271,23.271v325.792 c0,12.853,10.42,23.273,23.273,23.273h279.273c12.853,0,23.273-10.42,23.273-23.273V162.91 C418.91,156.736,416.458,150.817,412.092,146.453z M232.728,465.455h-93.091V186.206l93.091-0.009V465.455z M372.364,465.455 h-93.091V186.192l93.091-0.009V465.455z"/> </g> </g> </g>
</svg>