<?xml version="1.0" encoding="iso-8859-1"?>
<!-- Uploaded to: SVG Repo, www.svgrepo.com, Generator: SVG Repo Mixer Tools -->
<svg fill="#000000" version="1.1" id="Layer_1" xmlns="http://www.w3.org/2000/svg" xmlns:xlink="http://www.w3.org/1999/xlink" 
	 viewBox="0 0 511.993 511.993" xml:space="preserve">
<g>
	<g>
		<g>
			<rect x="247.463" y="460.775" width="17.067" height="51.2"/>
			<path d="M503.437,388.868c-0.009-0.008-0.017-0.017-0.026-0.017l-72.559-66.782c-21.333-19.772-54.724-19.738-75.955,0.017
				l-30.43,27.733l-30.148-27.75c-21.316-19.772-54.69-19.729-75.989,0.043l-30.396,27.699l-30.148-27.742
				c-21.333-19.772-54.724-19.738-75.955,0.017L8.513,388.902c-5.359,4.992-8.38,11.767-8.508,19.089
				c-0.137,7.313,2.645,14.191,7.817,19.362c5.222,5.222,12.075,7.851,18.918,7.851c5.623,0,11.196-1.886,15.923-5.444v73.685
				c0,4.719,3.814,8.533,8.533,8.533h51.2h34.133h51.2h42.667v-59.733c0-4.719,3.814-8.533,8.533-8.533h34.133
				c4.719,0,8.533,3.814,8.533,8.533v59.733h42.667h51.2h34.133h51.2c4.719,0,8.533-3.814,8.533-8.533V429.76
				c4.753,3.558,10.325,5.427,15.94,5.427c6.852,0,13.696-2.628,18.901-7.834c5.18-5.18,7.962-12.075,7.817-19.396
				C511.851,400.627,508.813,393.843,503.437,388.868z M33.208,415.594c-3.831,3.482-9.668,3.345-13.321-0.307
				c-1.869-1.869-2.876-4.352-2.825-6.989c0.051-2.645,1.143-5.094,3.021-6.835l73.31-66.816
				c7.407-6.895,16.905-10.334,26.419-10.334c9.489,0,18.987,3.422,26.402,10.3l29.065,26.735l-14.848,13.534l-17.408-15.65
				c-13.918-12.621-32.606-12.612-46.438-0.009L33.208,415.594z M179.196,494.912h-34.133v-42.667c0-4.719-3.814-8.533-8.533-8.533
				h-34.133c-4.719,0-8.533,3.814-8.533,8.533v42.667H59.73v-79.462l48.273-43.546c2.901-2.637,6.084-4.173,9.318-4.71
				c4.881-0.802,9.882,0.734,14.259,4.71l0.29,0.256l15.727,14.413l-2.551,2.33c-5.359,4.992-8.38,11.767-8.508,19.089
				c-0.137,7.313,2.645,14.191,7.817,19.362c1.254,1.254,2.611,2.338,4.028,3.294c0.444,0.299,0.922,0.503,1.374,0.776
				c1.007,0.589,2.014,1.161,3.072,1.613c0.58,0.247,1.178,0.41,1.775,0.614c0.973,0.333,1.937,0.657,2.935,0.879
				c0.666,0.145,1.34,0.222,2.014,0.316c0.947,0.137,1.886,0.239,2.842,0.273c0.29,0.008,0.58,0.085,0.879,0.085
				c0.461,0,0.913-0.102,1.374-0.128c0.794-0.034,1.579-0.094,2.372-0.213c0.794-0.111,1.579-0.273,2.364-0.461
				c0.742-0.179,1.476-0.375,2.21-0.614c0.802-0.265,1.57-0.572,2.347-0.913c0.7-0.307,1.374-0.631,2.048-0.998
				c0.751-0.41,1.476-0.862,2.193-1.357c0.333-0.222,0.691-0.384,1.015-0.623V494.912z M330.381,404.936l-50.825-45.705
				c-13.918-12.629-32.623-12.604-46.438-0.009l-63.377,56.371c-3.84,3.482-9.677,3.345-13.32-0.307
				c-1.869-1.869-2.876-4.352-2.825-6.989c0.051-2.645,1.143-5.094,3.021-6.835l9.387-8.559c0,0,0-0.008,0.008-0.008l2.842-2.594
				l24.806-22.605c0.009-0.008,0.009-0.008,0.009-0.017l36.198-32.981c0.008-0.026,0.034-0.043,0.051-0.06
				c7.415-6.895,16.913-10.334,26.428-10.334c9.489,0,18.987,3.43,26.402,10.3l63.403,58.359c0.009,0,0.009,0.009,0.009,0.017
				l9.148,8.405c1.937,1.801,3.038,4.25,3.089,6.895c0.051,2.637-0.956,5.129-2.842,7.006c-3.652,3.661-9.481,3.772-13.321,0.307
				l-11.844-10.658H330.381z M452.263,494.912H418.13v-42.667c0-4.719-3.814-8.533-8.533-8.533h-34.133
				c-4.719,0-8.533,3.814-8.533,8.533v42.667h-34.133v-65.007c0.384,0.282,0.811,0.478,1.203,0.734
				c0.64,0.435,1.289,0.836,1.963,1.203c0.794,0.444,1.604,0.819,2.432,1.169c0.683,0.282,1.365,0.563,2.065,0.794
				c0.853,0.282,1.715,0.486,2.586,0.674c0.708,0.162,1.417,0.324,2.133,0.418c0.887,0.12,1.775,0.154,2.662,0.179
				c0.725,0.026,1.434,0.077,2.15,0.043c0.913-0.043,1.809-0.188,2.705-0.324c0.691-0.102,1.382-0.171,2.065-0.324
				c0.947-0.222,1.86-0.555,2.79-0.879c0.606-0.213,1.22-0.375,1.818-0.631c1.05-0.461,2.048-1.05,3.046-1.647
				c0.427-0.256,0.87-0.444,1.28-0.717c1.382-0.939,2.714-2.014,3.942-3.243c1.818-1.818,3.217-3.891,4.42-6.067
				c2.227-4.045,3.49-8.559,3.396-13.32v-0.009c-0.136-7.33-3.174-14.114-8.576-19.115l-2.261-2.091l16.452-14.848
				c2.133-1.937,4.42-3.234,6.758-4.036c5.402-1.852,11.127-0.7,16.12,3.49c0.222,0.179,0.452,0.316,0.666,0.512l47.65,43.665
				V494.912z M492.088,415.287c-3.644,3.661-9.489,3.772-13.32,0.307l-62.677-56.363c-6.963-6.315-15.112-9.463-23.253-9.463
				s-16.265,3.157-23.185,9.455l-17.775,15.812l-14.797-13.611l29.38-26.778c14.797-13.764,37.982-13.781,52.821-0.043
				l72.576,66.799c1.929,1.8,3.021,4.241,3.072,6.878C494.981,410.918,493.974,413.41,492.088,415.287z"/>
			<path d="M201.386,204.465c16.307,25.335,32.145,52.625,47.053,81.075c1.476,2.816,4.386,4.574,7.561,4.574
				c3.174,0,6.076-1.758,7.552-4.574c14.908-28.45,30.746-55.74,47.053-81.075c8.832-13.722,17.51-26.701,26.513-39.68
				c14.123-20.326,21.282-41.318,21.282-62.404C358.4,45.95,312.465,0.023,256,0.015C199.526,0.023,153.6,45.95,153.6,102.381
				c0,21.086,7.151,42.078,21.274,62.404C183.876,177.764,192.554,190.743,201.386,204.465z M216.746,112.621
				c3.763-2.825,9.114-2.074,11.938,1.707l17.988,23.979l44.672-74.453c2.423-4.028,7.663-5.35,11.708-2.927
				c4.045,2.432,5.35,7.671,2.927,11.708l-51.14,85.24v0.009l-0.06,0.085c-0.529,0.887-1.229,1.587-1.988,2.202
				c-0.085,0.068-0.119,0.171-0.213,0.239c-0.119,0.085-0.256,0.111-0.375,0.196c-0.512,0.341-1.058,0.623-1.63,0.845
				c-0.23,0.094-0.452,0.205-0.691,0.282c-0.759,0.222-1.544,0.367-2.347,0.375c-0.017,0-0.043,0.009-0.06,0.009h-0.009h-0.009
				c-1.135,0-2.27-0.307-3.362-0.777c-0.196-0.085-0.384-0.154-0.58-0.247c-0.145-0.077-0.299-0.111-0.444-0.196
				c-0.879-0.529-1.57-1.237-2.185-1.988c-0.068-0.085-0.179-0.119-0.247-0.213l-0.051-0.06c-0.009-0.017-0.017-0.034-0.034-0.043
				l-25.515-34.031C212.207,120.796,212.975,115.445,216.746,112.621z"/>
		</g>
	</g>
</g>
</svg>