<?xml version="1.0" encoding="utf-8"?>
<svg version="1.1" x="0px" y="0px" viewBox="0 0 500 500" style="enable-background:new 0 0 500 500;" xmlns="http://www.w3.org/2000/svg">
  <defs/>
  <g id="OBJECTS">
    <g>
      <g>
        <path style="fill:#1E1863;" d="M155.986,158.701h46.764c7.311,0,13.238-5.927,13.238-13.238V78.001c0-3.556-2.883-6.44-6.44-6.44&#10;&#9;&#9;&#9;&#9;h-60.359c-3.557,0-6.44,2.883-6.44,6.44v67.463C142.748,152.774,148.675,158.701,155.986,158.701z"/>
        <path style="fill:#191151;" d="M149.256,84.424h60.223c3.58,0,6.508-2.928,6.508-6.508l0,0c0-3.58-2.929-6.508-6.508-6.508&#10;&#9;&#9;&#9;&#9;h-60.223c-3.579,0-6.508,2.928-6.508,6.508l0,0C142.748,81.496,145.677,84.424,149.256,84.424z"/>
      </g>
      <path style="fill:#F6D000;" d="M155.055,116.904h51.644v51.645h-20.756v-20.733c0-2.786-2.28-5.066-5.066-5.066&#10;&#9;&#9;&#9;c-2.787,0-5.066,2.28-5.066,5.066v20.733h-20.756V116.904z"/>
      <g>
        <path style="fill:#1E1863;" d="M113.043,252.202v-46.764c0-7.311-5.927-13.238-13.238-13.238H32.343&#10;&#9;&#9;&#9;&#9;c-3.557,0-6.44,2.883-6.44,6.44V259c0,3.557,2.883,6.44,6.44,6.44h67.463C107.117,265.44,113.043,259.514,113.043,252.202z"/>
        <path style="fill:#191151;" d="M38.767,258.932v-60.223c0-3.58-2.929-6.508-6.508-6.508l0,0c-3.58,0-6.508,2.929-6.508,6.508&#10;&#9;&#9;&#9;&#9;v60.223c0,3.58,2.929,6.508,6.508,6.508l0,0C35.838,265.44,38.767,262.512,38.767,258.932z"/>
      </g>
      <g>
        <path style="fill:#1E1863;" d="M351.23,158.139h-46.764c-7.311,0-13.238-5.927-13.238-13.238V77.439&#10;&#9;&#9;&#9;&#9;c0-3.557,2.884-6.44,6.44-6.44h60.359c3.557,0,6.44,2.883,6.44,6.44v67.462C364.468,152.212,358.541,158.139,351.23,158.139z"/>
        <path style="fill:#191151;" d="M357.96,83.862h-60.224c-3.579,0-6.508-2.928-6.508-6.508l0,0c0-3.58,2.929-6.508,6.508-6.508&#10;&#9;&#9;&#9;&#9;h60.224c3.579,0,6.508,2.928,6.508,6.508l0,0C364.468,80.934,361.539,83.862,357.96,83.862z"/>
      </g>
      <g>
        <path style="fill:#1E1863;" d="M389.211,261.714v-46.763c0-7.311,5.927-13.238,13.238-13.238h67.462&#10;&#9;&#9;&#9;&#9;c3.557,0,6.44,2.883,6.44,6.44v60.359c0,3.557-2.884,6.44-6.44,6.44h-67.462C395.138,274.952,389.211,269.025,389.211,261.714z"/>
        <path style="fill:#191151;" d="M463.488,268.444v-60.224c0-3.579,2.928-6.508,6.508-6.508l0,0c3.579,0,6.508,2.929,6.508,6.508&#10;&#9;&#9;&#9;&#9;v60.224c0,3.579-2.929,6.508-6.508,6.508l0,0C466.416,274.952,463.488,272.023,463.488,268.444z"/>
      </g>
      <g>
        <path style="fill:#1E1863;" d="M285.866,345.416h46.764c7.312,0,13.238,5.926,13.238,13.237v67.463&#10;&#9;&#9;&#9;&#9;c0,3.557-2.884,6.439-6.44,6.439h-60.359c-3.557,0-6.439-2.883-6.439-6.439v-67.463&#10;&#9;&#9;&#9;&#9;C272.629,351.342,278.556,345.416,285.866,345.416z"/>
        <path style="fill:#191151;" d="M279.137,419.692h60.223c3.58,0,6.509,2.929,6.509,6.508l0,0c0,3.579-2.929,6.508-6.509,6.508&#10;&#9;&#9;&#9;&#9;h-60.223c-3.579,0-6.508-2.929-6.508-6.508l0,0C272.629,422.621,275.558,419.692,279.137,419.692z"/>
      </g>
      <path style="fill:#FFABBD;" d="M352.528,120.017h-51.645v51.644h20.756v-20.733c0-2.787,2.28-5.066,5.066-5.066&#10;&#9;&#9;&#9;c2.787,0,5.066,2.28,5.066,5.066v20.733h20.756V120.017z"/>
      <path style="fill:#3F3BBA;" d="M410.34,270.358l0.287-51.644l-51.644-0.287l-0.115,20.755l20.732,0.115&#10;&#9;&#9;&#9;c2.787,0.016,5.054,2.308,5.038,5.095c-0.016,2.787-2.308,5.054-5.095,5.038l-20.732-0.115l-0.115,20.755L410.34,270.358z"/>
      <path style="fill:#F6D000;" d="M285.005,378.109l51.643,0.287l0.287-51.644l-20.755-0.115l-0.115,20.732&#10;&#9;&#9;&#9;c-0.016,2.787-2.309,5.054-5.095,5.038c-2.786-0.015-5.054-2.308-5.038-5.094l0.115-20.733l-20.756-0.115L285.005,378.109z"/>
      <path style="fill:#FC526B;" d="M76.166,202.203l-0.287,51.644l51.644,0.287l0.116-20.755l-20.733-0.115&#10;&#9;&#9;&#9;c-2.787-0.016-5.054-2.308-5.038-5.095c0.015-2.787,2.308-5.054,5.094-5.038l20.733,0.115l0.115-20.755L76.166,202.203z"/>
      <g>
        <path style="fill:#1E1863;" d="M208.958,345.492h-46.763c-7.311,0-13.238,5.927-13.238,13.237v67.463&#10;&#9;&#9;&#9;&#9;c0,3.557,2.883,6.439,6.439,6.439h60.359c3.557,0,6.44-2.883,6.44-6.439v-67.463&#10;&#9;&#9;&#9;&#9;C222.196,351.419,216.269,345.492,208.958,345.492z"/>
        <path style="fill:#191151;" d="M215.688,419.769h-60.223c-3.579,0-6.508,2.929-6.508,6.508l0,0c0,3.579,2.929,6.508,6.508,6.508&#10;&#9;&#9;&#9;&#9;h60.223c3.58,0,6.508-2.929,6.508-6.508l0,0C222.196,422.697,219.268,419.769,215.688,419.769z"/>
      </g>
      <path style="fill:#3F3BBA;" d="M211.542,378.109l-51.644,0.287l-0.287-51.644l20.755-0.115l0.115,20.732&#10;&#9;&#9;&#9;c0.016,2.787,2.308,5.054,5.095,5.038c2.787-0.015,5.054-2.308,5.038-5.094l-0.115-20.733l20.755-0.115L211.542,378.109z"/>
      <g>
        <path style="fill:#FFFFFF;" d="M160.416,395.204c-0.626,0.042-1.263,0.021-1.911-0.069c-1.659-0.227-3.16-0.878-4.411-1.834&#10;&#9;&#9;&#9;&#9;c-2.663-2.027-4.201-5.422-3.728-9.007l10.216-77.571l4.67,0.645l8.171,1.135l5.946,0.818l-3.533,26.847l-6.682,50.726&#10;&#9;&#9;&#9;&#9;C168.547,391.504,164.816,394.912,160.416,395.204z"/>
        <path style="fill:#FFDEEA;" d="M165.62,302.202c-0.022-0.223-0.043-0.439-0.065-0.662l-2.088-7.937l-0.064-0.234l-1.3-8.129&#10;&#9;&#9;&#9;&#9;c-0.107-0.667,0.342-1.301,0.998-1.4c0.396-0.068,0.779,0.075,1.045,0.345c0.17,0.172,0.296,0.402,0.334,0.666l0.888,5.559&#10;&#9;&#9;&#9;&#9;c0.071,0.451,0.499,0.76,0.943,0.682l0.197-0.042c0.438-0.07,0.727-0.49,0.656-0.935l-0.848-5.371&#10;&#9;&#9;&#9;&#9;c-0.113-0.66,0.336-1.294,0.992-1.4c0.396-0.061,0.785,0.074,1.051,0.345c0.178,0.178,0.29,0.408,0.334,0.666l0.845,5.321&#10;&#9;&#9;&#9;&#9;c0.071,0.452,0.493,0.761,0.936,0.683l0.068-0.012c0.437-0.078,0.734-0.498,0.663-0.943l-0.876-5.495&#10;&#9;&#9;&#9;&#9;c-0.107-0.667,0.342-1.301,0.998-1.407c0.396-0.061,0.778,0.074,1.045,0.345c0.171,0.178,0.297,0.408,0.342,0.672l0.867,5.454&#10;&#9;&#9;&#9;&#9;c0.072,0.452,0.493,0.761,0.936,0.683c0.41-0.077,0.696-0.446,0.668-0.866c-0.002-0.022-0.01-0.049-0.012-0.076l-0.84-5.267&#10;&#9;&#9;&#9;&#9;c-0.1-0.667,0.348-1.302,1.004-1.408c0.396-0.061,0.771,0.075,1.038,0.346c0.177,0.178,0.297,0.408,0.342,0.672l1.256,7.872&#10;&#9;&#9;&#9;&#9;l0.004,0.056l0.051,0.354l0,0.008l0.74,5.729c0.008,0.021,0.022,0.026,0.036,0.019c0.29-0.216,0.641-0.331,1.027-0.328&#10;&#9;&#9;&#9;&#9;l2.537,0.027c0.483,0.003,0.919,0.213,1.237,0.536c0.288,0.289,0.48,0.677,0.523,1.116c0.1,1.082-0.849,1.98-1.928,1.968&#10;&#9;&#9;&#9;&#9;l-2.939-0.05l-4.188,2.988c-0.692,0.496-1.145,1.256-1.255,2.105l-0.398,3.047l-8.171-1.135L165.62,302.202z"/>
      </g>
      <path style="fill:#191151;" d="M350.529,333.94H129.977c-6.469,0-11.713-5.244-11.713-11.713V180.756&#10;&#9;&#9;&#9;c0-6.469,5.244-11.713,11.713-11.713h220.552c6.469,0,11.713,5.244,11.713,11.713v141.472&#10;&#9;&#9;&#9;C362.242,328.696,356.998,333.94,350.529,333.94z"/>
      <g>
        <text transform="matrix(1 0 0 1 186.7549 239.9688)" style="fill: rgb(252, 82, 107); font-family: Montserrat-Bold; font-size: 32.6531px; letter-spacing: 3px; white-space: pre;">TEAM</text>
        <text transform="matrix(1 0 0 1 179.0469 275.0923)" style="fill: rgb(252, 82, 107); font-family: Montserrat-Bold; font-size: 32.6531px; letter-spacing: 3px; white-space: pre;">WORK</text>
        <text style="white-space: pre; fill: rgb(51, 51, 51); font-family: Arial, sans-serif; font-size: 28px;" x="156.491" y="238.914"> </text>
        <text style="white-space: pre; fill: rgb(51, 51, 51); font-family: Arial, sans-serif; font-size: 28px;" x="671.273" y="249.839"> </text>
        <text style="white-space: pre; fill: rgb(51, 51, 51); font-family: Arial, sans-serif; font-size: 28px;" x="340.938" y="235.058"> </text>
        <text style="white-space: pre; fill: rgb(51, 51, 51); font-family: Arial, sans-serif; font-size: 28px;" x="688.625" y="255.623"> </text>
      </g>
      <g>
        <g>
          <path style="fill:#FFFFFF;" d="M335.264,400.735c0.594,0.2,1.215,0.343,1.865,0.421c1.661,0.204,3.278-0.042,4.732-0.647&#10;&#9;&#9;&#9;&#9;&#9;c3.093-1.281,5.446-4.17,5.904-7.757l9.926-77.609l-4.68-0.569l-8.189-0.989l-5.958-0.726l-3.438,26.858l-6.489,50.751&#10;&#9;&#9;&#9;&#9;&#9;C328.346,395.082,331.083,399.329,335.264,400.735z"/>
          <path style="fill:#FFDEEA;" d="M353.975,309.487c0.078-0.211,0.153-0.414,0.232-0.624l4.046-7.141l0.122-0.21l3.332-7.527&#10;&#9;&#9;&#9;&#9;&#9;c0.272-0.618,0.001-1.345-0.607-1.609c-0.366-0.167-0.772-0.126-1.099,0.067c-0.209,0.122-0.389,0.313-0.493,0.558l-2.277,5.147&#10;&#9;&#9;&#9;&#9;&#9;c-0.185,0.419-0.677,0.607-1.086,0.418l-0.181-0.09c-0.405-0.181-0.578-0.66-0.396-1.072l2.19-4.977&#10;&#9;&#9;&#9;&#9;&#9;c0.277-0.609,0.006-1.336-0.601-1.606c-0.368-0.16-0.778-0.129-1.105,0.064c-0.217,0.126-0.384,0.321-0.493,0.559l-2.175,4.93&#10;&#9;&#9;&#9;&#9;&#9;c-0.185,0.419-0.671,0.61-1.079,0.421l-0.064-0.029c-0.402-0.186-0.582-0.669-0.4-1.08l2.251-5.09&#10;&#9;&#9;&#9;&#9;&#9;c0.273-0.618,0.002-1.345-0.605-1.615c-0.367-0.161-0.772-0.127-1.099,0.066c-0.21,0.128-0.391,0.319-0.502,0.563l-2.23,5.052&#10;&#9;&#9;&#9;&#9;&#9;c-0.185,0.419-0.671,0.61-1.079,0.421c-0.377-0.179-0.559-0.609-0.425-1.008c0.007-0.02,0.022-0.044,0.031-0.07l2.157-4.878&#10;&#9;&#9;&#9;&#9;&#9;c0.267-0.619-0.005-1.347-0.611-1.618c-0.368-0.16-0.766-0.124-1.093,0.069c-0.217,0.127-0.391,0.319-0.502,0.563l-3.224,7.291&#10;&#9;&#9;&#9;&#9;&#9;l-0.018,0.053l-0.14,0.33l-0.003,0.007l-2.179,5.351c-0.013,0.018-0.028,0.02-0.039,0.009c-0.225-0.282-0.535-0.483-0.91-0.58&#10;&#9;&#9;&#9;&#9;&#9;l-2.46-0.62c-0.468-0.12-0.942-0.029-1.333,0.202c-0.353,0.206-0.637,0.532-0.791,0.945c-0.372,1.02,0.315,2.132,1.361,2.395&#10;&#9;&#9;&#9;&#9;&#9;l2.855,0.701l3.285,3.959c0.543,0.655,0.787,1.507,0.676,2.357l-0.392,3.046l8.189,0.989L353.975,309.487z"/>
        </g>
        <g>
          <path style="fill:#FFFFFF;" d="M271.705,393.955c-0.628,0-1.262-0.063-1.902-0.196c-1.641-0.336-3.095-1.086-4.279-2.123&#10;&#9;&#9;&#9;&#9;&#9;c-2.522-2.199-3.832-5.688-3.122-9.233l15.341-76.724l4.617,0.953l8.077,1.675l5.878,1.212l-5.307,26.553l-10.034,50.17&#10;&#9;&#9;&#9;&#9;&#9;C280.064,390.803,276.115,393.955,271.705,393.955z"/>
          <path style="fill:#FFDEEA;" d="M283.068,301.503c-0.006-0.224-0.014-0.44-0.021-0.665l-1.558-8.058l-0.048-0.238l-0.758-8.196&#10;&#9;&#9;&#9;&#9;&#9;c-0.063-0.673,0.427-1.275,1.089-1.331c0.399-0.042,0.771,0.126,1.02,0.413c0.159,0.183,0.27,0.42,0.29,0.687l0.517,5.605&#10;&#9;&#9;&#9;&#9;&#9;c0.041,0.456,0.448,0.792,0.896,0.743l0.2-0.028c0.441-0.042,0.758-0.441,0.717-0.89l-0.489-5.416&#10;&#9;&#9;&#9;&#9;&#9;c-0.069-0.665,0.421-1.267,1.082-1.331c0.399-0.034,0.778,0.127,1.026,0.414c0.166,0.189,0.262,0.427,0.29,0.687l0.489,5.366&#10;&#9;&#9;&#9;&#9;&#9;c0.041,0.455,0.441,0.792,0.889,0.742l0.069-0.007c0.44-0.049,0.765-0.448,0.724-0.896l-0.511-5.542&#10;&#9;&#9;&#9;&#9;&#9;c-0.061-0.672,0.428-1.274,1.089-1.338c0.4-0.035,0.773,0.126,1.021,0.413c0.158,0.189,0.269,0.428,0.296,0.694l0.504,5.499&#10;&#9;&#9;&#9;&#9;&#9;c0.041,0.456,0.44,0.792,0.889,0.743c0.413-0.05,0.724-0.399,0.724-0.82c0-0.021-0.007-0.049-0.007-0.076l-0.489-5.312&#10;&#9;&#9;&#9;&#9;&#9;c-0.056-0.672,0.434-1.274,1.096-1.338c0.4-0.035,0.765,0.126,1.013,0.414c0.165,0.189,0.269,0.427,0.297,0.693l0.73,7.938&#10;&#9;&#9;&#9;&#9;&#9;v0.056l0.027,0.357v0.008l0.358,5.766c0.007,0.02,0.021,0.028,0.034,0.02c0.304-0.195,0.662-0.287,1.048-0.259l2.529,0.196&#10;&#9;&#9;&#9;&#9;&#9;c0.482,0.035,0.902,0.273,1.199,0.616c0.268,0.309,0.434,0.708,0.447,1.148c0.028,1.087-0.979,1.92-2.054,1.836l-2.929-0.245&#10;&#9;&#9;&#9;&#9;&#9;l-4.376,2.705c-0.724,0.448-1.227,1.177-1.393,2.018l-0.599,3.013l-8.077-1.675L283.068,301.503z"/>
        </g>
        <path style="fill:#FFFFFF;" d="M283.962,363.568h41.592c11.964,0,21.752,9.789,21.752,21.753v7.634&#10;&#9;&#9;&#9;&#9;c0,11.964-9.788,21.753-21.752,21.753h-41.592c-11.964,0-21.753-9.789-21.753-21.753v-7.634&#10;&#9;&#9;&#9;&#9;C262.209,373.357,271.998,363.568,283.962,363.568z"/>
      </g>
      <g>
        <path style="fill:#FFFFFF;" d="M213.625,363.568h-41.592c-11.963,0-21.752,9.789-21.752,21.753v7.634&#10;&#9;&#9;&#9;&#9;c0,11.964,9.788,21.753,21.752,21.753h41.592c11.964,0,21.752-9.789,21.752-21.753v-7.634&#10;&#9;&#9;&#9;&#9;C235.378,373.357,225.589,363.568,213.625,363.568z"/>
        <g>
          <path style="fill:#FFFFFF;" d="M225.882,393.955c0.628,0,1.261-0.063,1.902-0.196c1.64-0.336,3.095-1.086,4.28-2.123&#10;&#9;&#9;&#9;&#9;&#9;c2.522-2.199,3.832-5.688,3.122-9.233l-15.341-76.724l-4.617,0.953l-8.077,1.675l-5.878,1.212l5.307,26.553l10.034,50.17&#10;&#9;&#9;&#9;&#9;&#9;C217.523,390.803,221.472,393.955,225.882,393.955z"/>
          <path style="fill:#FFDEEA;" d="M214.518,301.503c0.007-0.224,0.014-0.44,0.021-0.665l1.557-8.058l0.048-0.238l0.758-8.196&#10;&#9;&#9;&#9;&#9;&#9;c0.062-0.673-0.427-1.275-1.089-1.331c-0.399-0.042-0.772,0.126-1.02,0.413c-0.159,0.183-0.269,0.42-0.29,0.687l-0.517,5.605&#10;&#9;&#9;&#9;&#9;&#9;c-0.041,0.456-0.448,0.792-0.896,0.743l-0.2-0.028c-0.441-0.042-0.758-0.441-0.717-0.89l0.49-5.416&#10;&#9;&#9;&#9;&#9;&#9;c0.068-0.665-0.421-1.267-1.083-1.331c-0.399-0.034-0.779,0.127-1.026,0.414c-0.166,0.189-0.262,0.427-0.29,0.687l-0.489,5.366&#10;&#9;&#9;&#9;&#9;&#9;c-0.042,0.455-0.441,0.792-0.889,0.742l-0.069-0.007c-0.441-0.049-0.765-0.448-0.724-0.896l0.51-5.542&#10;&#9;&#9;&#9;&#9;&#9;c0.062-0.672-0.427-1.274-1.088-1.338c-0.4-0.035-0.772,0.126-1.021,0.413c-0.158,0.189-0.269,0.428-0.296,0.694l-0.503,5.499&#10;&#9;&#9;&#9;&#9;&#9;c-0.042,0.456-0.441,0.792-0.889,0.743c-0.413-0.05-0.724-0.399-0.724-0.82c0-0.021,0.007-0.049,0.007-0.076l0.489-5.312&#10;&#9;&#9;&#9;&#9;&#9;c0.055-0.672-0.434-1.274-1.096-1.338c-0.4-0.035-0.765,0.126-1.013,0.414c-0.165,0.189-0.269,0.427-0.296,0.693l-0.73,7.938&#10;&#9;&#9;&#9;&#9;&#9;v0.056l-0.027,0.357v0.008l-0.359,5.766c-0.007,0.02-0.02,0.028-0.034,0.02c-0.304-0.195-0.662-0.287-1.047-0.259l-2.53,0.196&#10;&#9;&#9;&#9;&#9;&#9;c-0.482,0.035-0.902,0.273-1.199,0.616c-0.268,0.309-0.434,0.708-0.448,1.148c-0.027,1.087,0.979,1.92,2.054,1.836l2.929-0.245&#10;&#9;&#9;&#9;&#9;&#9;l4.377,2.705c0.723,0.448,1.226,1.177,1.392,2.018l0.6,3.013l8.077-1.675L214.518,301.503z"/>
        </g>
      </g>
      <g>
        <g>
          <path style="fill:#FFFFFF;" d="M363.604,127.863h-76.417l-3.31-21.641c0-8.747,8.468-15.837,18.913-15.837h47.465&#10;&#9;&#9;&#9;&#9;&#9;c10.445,0,18.913,7.09,18.913,15.837L363.604,127.863z"/>
          <g>
            <g>
              <path style="fill:#FFFFFF;" d="M299.601,96.724c-0.534-0.328-1.107-0.606-1.724-0.828c-1.573-0.571-3.205-0.693-4.758-0.429&#10;&#9;&#9;&#9;&#9;&#9;&#9;&#9;c-3.301,0.556-6.241,2.845-7.49,6.238l-27.047,73.418l4.434,1.603l7.761,2.796l5.645,2.041l9.362-25.408l17.685-48.011&#10;&#9;&#9;&#9;&#9;&#9;&#9;&#9;C305.077,103.782,303.36,99.03,299.601,96.724z"/>
              <path style="fill:#FFDEEA;" d="M260.939,181.468c-0.124,0.188-0.243,0.369-0.366,0.557l-5.541,6.053l-0.166,0.178l-4.932,6.59&#10;&#9;&#9;&#9;&#9;&#9;&#9;&#9;c-0.405,0.541-0.303,1.31,0.232,1.704c0.318,0.245,0.724,0.296,1.085,0.181c0.23-0.072,0.449-0.218,0.606-0.434l3.371-4.507&#10;&#9;&#9;&#9;&#9;&#9;&#9;&#9;c0.273-0.367,0.796-0.44,1.152-0.164l0.155,0.128c0.354,0.267,0.416,0.773,0.145,1.133l-3.249,4.36&#10;&#9;&#9;&#9;&#9;&#9;&#9;&#9;c-0.406,0.532-0.305,1.301,0.227,1.701c0.322,0.239,0.729,0.3,1.091,0.185c0.24-0.075,0.447-0.227,0.606-0.434l3.224-4.318&#10;&#9;&#9;&#9;&#9;&#9;&#9;&#9;c0.273-0.366,0.79-0.444,1.145-0.168l0.056,0.042c0.35,0.273,0.417,0.782,0.147,1.143l-3.333,4.456&#10;&#9;&#9;&#9;&#9;&#9;&#9;&#9;c-0.404,0.541-0.303,1.31,0.228,1.71c0.322,0.239,0.724,0.296,1.086,0.181c0.233-0.078,0.452-0.224,0.615-0.436l3.305-4.425&#10;&#9;&#9;&#9;&#9;&#9;&#9;&#9;c0.273-0.366,0.79-0.444,1.146-0.168c0.326,0.258,0.407,0.719,0.188,1.077c-0.011,0.018-0.031,0.038-0.046,0.062l-3.194,4.271&#10;&#9;&#9;&#9;&#9;&#9;&#9;&#9;c-0.398,0.544-0.297,1.314,0.234,1.714c0.322,0.239,0.718,0.292,1.08,0.177c0.239-0.075,0.452-0.224,0.615-0.436l4.774-6.384&#10;&#9;&#9;&#9;&#9;&#9;&#9;&#9;l0.029-0.048l0.21-0.29l0.004-0.006l3.321-4.727c0.017-0.015,0.032-0.013,0.04,0c0.156,0.326,0.413,0.591,0.757,0.768&#10;&#9;&#9;&#9;&#9;&#9;&#9;&#9;l2.259,1.156c0.43,0.222,0.912,0.239,1.345,0.102c0.39-0.122,0.74-0.376,0.982-0.745c0.592-0.912,0.17-2.148-0.791-2.639&#10;&#9;&#9;&#9;&#9;&#9;&#9;&#9;l-2.624-1.322l-2.316-4.594c-0.382-0.76-0.43-1.645-0.131-2.447l1.065-2.882l-7.761-2.796L260.939,181.468z"/>
            </g>
            <g>
              <path style="fill:#FFFFFF;" d="M359.429,97.944c0.627,0,1.261,0.063,1.902,0.196c1.64,0.337,3.094,1.086,4.279,2.123&#10;&#9;&#9;&#9;&#9;&#9;&#9;&#9;c2.522,2.2,3.832,5.689,3.122,9.234l-15.341,76.723l-4.617-0.953l-8.077-1.674l-5.879-1.212l5.308-26.553l10.033-50.17&#10;&#9;&#9;&#9;&#9;&#9;&#9;&#9;C351.069,101.097,355.018,97.944,359.429,97.944z"/>
              <path style="fill:#FFDEEA;" d="M348.064,190.395c0.007,0.224,0.014,0.441,0.021,0.666l1.558,8.057l0.049,0.238l0.758,8.197&#10;&#9;&#9;&#9;&#9;&#9;&#9;&#9;c0.061,0.673-0.428,1.275-1.089,1.332c-0.4,0.042-0.772-0.126-1.02-0.414c-0.159-0.182-0.27-0.42-0.29-0.687l-0.517-5.605&#10;&#9;&#9;&#9;&#9;&#9;&#9;&#9;c-0.042-0.455-0.448-0.792-0.896-0.742l-0.199,0.028c-0.441,0.042-0.759,0.441-0.717,0.89l0.489,5.415&#10;&#9;&#9;&#9;&#9;&#9;&#9;&#9;c0.068,0.666-0.421,1.268-1.082,1.332c-0.4,0.035-0.779-0.126-1.027-0.414c-0.165-0.19-0.262-0.427-0.289-0.687l-0.489-5.366&#10;&#9;&#9;&#9;&#9;&#9;&#9;&#9;c-0.042-0.456-0.441-0.792-0.889-0.743l-0.069,0.007c-0.441,0.049-0.766,0.448-0.724,0.896l0.51,5.542&#10;&#9;&#9;&#9;&#9;&#9;&#9;&#9;c0.063,0.672-0.427,1.274-1.089,1.338c-0.399,0.035-0.772-0.126-1.02-0.413c-0.158-0.189-0.27-0.428-0.297-0.694l-0.503-5.5&#10;&#9;&#9;&#9;&#9;&#9;&#9;&#9;c-0.041-0.455-0.441-0.792-0.889-0.743c-0.414,0.049-0.724,0.399-0.724,0.82c0,0.021,0.007,0.049,0.007,0.077l0.489,5.311&#10;&#9;&#9;&#9;&#9;&#9;&#9;&#9;c0.055,0.673-0.435,1.275-1.096,1.338c-0.4,0.035-0.766-0.126-1.014-0.414c-0.165-0.189-0.269-0.427-0.296-0.693l-0.73-7.938&#10;&#9;&#9;&#9;&#9;&#9;&#9;&#9;v-0.056l-0.027-0.358v-0.007l-0.358-5.766c-0.007-0.021-0.021-0.028-0.035-0.021c-0.303,0.196-0.661,0.288-1.047,0.259&#10;&#9;&#9;&#9;&#9;&#9;&#9;&#9;l-2.529-0.196c-0.482-0.035-0.903-0.273-1.199-0.616c-0.268-0.308-0.435-0.708-0.448-1.149&#10;&#9;&#9;&#9;&#9;&#9;&#9;&#9;c-0.027-1.086,0.979-1.92,2.054-1.836l2.929,0.246l4.377-2.705c0.724-0.448,1.227-1.177,1.392-2.018l0.6-3.013l8.077,1.674&#10;&#9;&#9;&#9;&#9;&#9;&#9;&#9;L348.064,190.395z"/>
            </g>
          </g>
        </g>
        <g>
          <g>
            <path style="fill:#FFDEEA;" d="M327.849,123.087L327.849,123.087c-14.209,0-25.834-11.625-25.834-25.834v-4.351&#10;&#9;&#9;&#9;&#9;&#9;&#9;c0-14.208,11.625-25.834,25.834-25.834l0,0c14.208,0,25.833,11.626,25.833,25.834v4.351&#10;&#9;&#9;&#9;&#9;&#9;&#9;C353.682,111.462,342.057,123.087,327.849,123.087z"/>
            <path style="fill:#FC526B;" d="M327.844,67.107c-14.211,0-25.83,11.63-25.83,25.84v4.35c0,9.59,5.3,18,13.119,22.46&#10;&#9;&#9;&#9;&#9;&#9;&#9;c0.16,0.09,0.32,0.17,0.48,0.25l-0.01,0.01c0,0,0.01,0,0.02,0c0.2,0.11,0.391,0.22,0.59,0.32c1.11-0.19,2.15-0.49,3.11-0.88&#10;&#9;&#9;&#9;&#9;&#9;&#9;c4.06-1.65,6.74-4.72,7.89-6.25c0.41-0.55,0.631-0.91,0.631-0.91s0.229,0.36,0.64,0.91c1.14,1.53,3.83,4.6,7.89,6.25&#10;&#9;&#9;&#9;&#9;&#9;&#9;c0.96,0.39,2,0.69,3.11,0.88c0.2-0.1,0.39-0.21,0.58-0.32h0.03l-0.011-0.01c0.16-0.08,0.32-0.16,0.48-0.25&#10;&#9;&#9;&#9;&#9;&#9;&#9;c7.81-4.46,13.12-12.87,13.12-22.46v-4.35C353.684,78.737,342.053,67.107,327.844,67.107z"/>
          </g>
          <path style="fill:#FC526B;" d="M342.215,73.129c0,6.812-6.697,10.882-14.666,12.334c-12.863,2.342-20.064-2.867-14.667-12.334&#10;&#9;&#9;&#9;&#9;&#9;c3.374-5.917,6.566-12.333,14.667-12.333C335.648,60.795,342.215,66.317,342.215,73.129z"/>
        </g>
      </g>
      <path style="fill:#FC526B;" d="M211.64,382.601"/>
      <g>
        <path style="fill:#FFDEEA;" d="M307.424,371.038L307.424,371.038c14.208,0,25.833,11.625,25.833,25.833v4.352&#10;&#9;&#9;&#9;&#9;c0,14.208-11.625,25.833-25.833,25.833l0,0c-14.209,0-25.834-11.625-25.834-25.833v-4.352&#10;&#9;&#9;&#9;&#9;C281.59,382.663,293.215,371.038,307.424,371.038z"/>
        <g>
          <path style="fill:#FC526B;" d="M285.965,382.573c-0.006,0.009-0.012,0.019-0.017,0.027c0.008-0.011,0.016-0.02,0.023-0.031&#10;&#9;&#9;&#9;&#9;&#9;C285.969,382.57,285.967,382.571,285.965,382.573z"/>
          <path style="fill:#5959CE;" d="M329.06,382.697c-0.058-0.043-0.119-0.082-0.179-0.124c-12.771-9.255-30.138-9.257-42.911-0.004&#10;&#9;&#9;&#9;&#9;&#9;c-0.008,0.011-0.016,0.021-0.023,0.031c-2.401,3.265-4.358,7.39-4.358,12.184v6.432c0,0.446,0.012,0.89,0.034,1.33&#10;&#9;&#9;&#9;&#9;&#9;c0.483,9.406,6.061,17.523,14.008,21.637c-0.224,0.923-0.355,1.882-0.355,2.873c0,6.71,5.439,12.148,12.148,12.148&#10;&#9;&#9;&#9;&#9;&#9;c6.709,0,12.148-5.439,12.148-12.148c0-0.99-0.132-1.948-0.355-2.87c7.948-4.111,13.524-12.23,14.008-21.639&#10;&#9;&#9;&#9;&#9;&#9;c0.023-0.441,0.034-0.885,0.034-1.331v-4.35C333.259,390.857,331.388,386.186,329.06,382.697z"/>
        </g>
      </g>
      <rect x="144.532" y="279.611" transform="matrix(0.7915 -0.6111 0.6111 0.7915 -150.1979 160.5213)" style="fill:#FFFFFF;" width="31.324" height="41.621"/>
      <rect x="321.946" y="238.725" transform="matrix(0.1276 -0.9918 0.9918 0.1276 36.7878 562.8489)" style="fill:#FFFFFF;" width="32.795" height="43.576"/>
      <g>
        <g>
          <g>
            <path style="fill:#FFDEEA;" d="M361.169,219.877c-0.211,0.075-0.416,0.148-0.627,0.224l-8.069,1.491l-0.24,0.042l-7.907,2.287&#10;&#9;&#9;&#9;&#9;&#9;&#9;c-0.649,0.188-1.031,0.863-0.842,1.499c0.106,0.387,0.399,0.673,0.757,0.798c0.228,0.082,0.489,0.097,0.745,0.019l5.406-1.565&#10;&#9;&#9;&#9;&#9;&#9;&#9;c0.439-0.127,0.9,0.128,1.019,0.563l0.047,0.196c0.122,0.426-0.134,0.867-0.566,0.992l-5.221,1.521&#10;&#9;&#9;&#9;&#9;&#9;&#9;c-0.645,0.179-1.027,0.854-0.845,1.493c0.114,0.385,0.402,0.679,0.76,0.805c0.237,0.085,0.494,0.088,0.745,0.019l5.175-1.503&#10;&#9;&#9;&#9;&#9;&#9;&#9;c0.439-0.128,0.898,0.122,1.016,0.557l0.02,0.067c0.114,0.428-0.139,0.876-0.571,1.001l-5.346,1.548&#10;&#9;&#9;&#9;&#9;&#9;&#9;c-0.648,0.188-1.03,0.863-0.848,1.502c0.113,0.385,0.398,0.673,0.757,0.799c0.234,0.079,0.496,0.094,0.754,0.023l5.304-1.539&#10;&#9;&#9;&#9;&#9;&#9;&#9;c0.44-0.128,0.898,0.122,1.017,0.556c0.104,0.403-0.108,0.82-0.5,0.973c-0.02,0.008-0.048,0.012-0.073,0.021l-5.123,1.483&#10;&#9;&#9;&#9;&#9;&#9;&#9;c-0.646,0.194-1.028,0.87-0.846,1.509c0.113,0.385,0.396,0.666,0.755,0.792c0.236,0.085,0.496,0.094,0.754,0.023l7.656-2.218&#10;&#9;&#9;&#9;&#9;&#9;&#9;l0.052-0.021l0.343-0.105l0.007-0.002l5.499-1.771c0.022-0.001,0.033,0.009,0.032,0.024c-0.072,0.354-0.026,0.721,0.141,1.07&#10;&#9;&#9;&#9;&#9;&#9;&#9;l1.106,2.283c0.208,0.436,0.584,0.741,1.012,0.892c0.385,0.137,0.817,0.146,1.232-0.002c1.022-0.371,1.431-1.612,0.96-2.583&#10;&#9;&#9;&#9;&#9;&#9;&#9;l-1.298-2.637l0.92-5.061c0.154-0.837,0.648-1.571,1.37-2.032l2.587-1.658l-4.508-6.908L361.169,219.877z"/>
            <path style="fill:#FFFFFF;" d="M455.874,202.549c-0.045-0.626-0.152-1.254-0.331-1.883c-0.452-1.612-1.304-3.009-2.422-4.118&#10;&#9;&#9;&#9;&#9;&#9;&#9;c-1.662-1.651-18.73-7.145-22.773-8.303c-8.301-2.379-24.628-2.659-34.367,3.46c-5.697,3.579-11.021,7.904-18.057,12.764&#10;&#9;&#9;&#9;&#9;&#9;&#9;l-14.518,10.029l1.279,4.538l2.245,7.938l1.627,5.777l14.046-9.702c7.928-5.475,13.54-10.282,20.07-14.101&#10;&#9;&#9;&#9;&#9;&#9;&#9;c8.179-4.782,18.048-5.734,27.059-2.808l14.988,4.867c5.361,1.741,11.132-2.089,11.176-7.727&#10;&#9;&#9;&#9;&#9;&#9;&#9;C455.898,203.037,455.892,202.794,455.874,202.549z"/>
          </g>
          <g>
            <path style="fill:#FFDEEA;" d="M363.653,274.788c-0.224-0.01-0.441-0.019-0.665-0.028l-8.149,0.963l-0.241,0.031l-8.23,0.154&#10;&#9;&#9;&#9;&#9;&#9;&#9;c-0.676,0.013-1.24-0.52-1.248-1.183c-0.013-0.402,0.183-0.761,0.487-0.987c0.193-0.145,0.439-0.237,0.706-0.238l5.627-0.104&#10;&#9;&#9;&#9;&#9;&#9;&#9;c0.457-0.008,0.822-0.389,0.807-0.839l-0.014-0.201c-0.009-0.443-0.384-0.789-0.835-0.78l-5.437,0.091&#10;&#9;&#9;&#9;&#9;&#9;&#9;c-0.669,0.02-1.233-0.513-1.248-1.177c-0.006-0.401,0.183-0.768,0.487-0.993c0.201-0.151,0.445-0.23,0.706-0.239l5.388-0.095&#10;&#9;&#9;&#9;&#9;&#9;&#9;c0.457-0.008,0.822-0.382,0.806-0.832l-0.002-0.069c-0.017-0.443-0.391-0.796-0.841-0.787l-5.564,0.103&#10;&#9;&#9;&#9;&#9;&#9;&#9;c-0.675,0.013-1.24-0.52-1.255-1.184c-0.005-0.401,0.183-0.761,0.487-0.987c0.2-0.145,0.446-0.236,0.714-0.245l5.521-0.099&#10;&#9;&#9;&#9;&#9;&#9;&#9;c0.457-0.008,0.822-0.382,0.806-0.832c-0.018-0.416-0.345-0.751-0.765-0.781c-0.021-0.002-0.049,0.003-0.077,0.001&#10;&#9;&#9;&#9;&#9;&#9;&#9;l-5.332,0.099c-0.675,0.006-1.24-0.526-1.255-1.191c-0.005-0.401,0.183-0.754,0.487-0.98c0.2-0.151,0.445-0.236,0.713-0.245&#10;&#9;&#9;&#9;&#9;&#9;&#9;l7.971-0.146l0.056,0.004l0.358-0.001l0.007,0.001l5.776,0.064c0.021-0.005,0.03-0.019,0.023-0.032&#10;&#9;&#9;&#9;&#9;&#9;&#9;c-0.173-0.317-0.237-0.682-0.182-1.065l0.381-2.508c0.07-0.478,0.339-0.88,0.703-1.15c0.327-0.246,0.737-0.382,1.179-0.363&#10;&#9;&#9;&#9;&#9;&#9;&#9;c1.085,0.053,1.843,1.117,1.68,2.184l-0.459,2.902l2.377,4.563c0.394,0.754,1.084,1.309,1.91,1.536l2.961,0.818l-2.263,7.933&#10;&#9;&#9;&#9;&#9;&#9;&#9;L363.653,274.788z"/>
            <path style="fill:#FFFFFF;" d="M459.245,263.321c0.143,0.611,0.226,1.243,0.241,1.898c0.045,1.674-0.355,3.26-1.096,4.649&#10;&#9;&#9;&#9;&#9;&#9;&#9;c-1.099,2.069-15.777,12.366-19.296,14.67c-7.226,4.729-22.739,9.825-33.853,6.862c-6.502-1.733-12.867-4.289-21.025-6.851&#10;&#9;&#9;&#9;&#9;&#9;&#9;l-16.834-5.285l-0.121-4.713l-0.204-8.246l-0.155-6l16.288,5.111c9.192,2.885,15.976,5.816,23.344,7.532&#10;&#9;&#9;&#9;&#9;&#9;&#9;c9.228,2.148,18.936,0.138,26.678-5.323l12.877-9.083c4.607-3.249,11.252-1.298,12.962,4.074&#10;&#9;&#9;&#9;&#9;&#9;&#9;C459.125,262.848,459.189,263.083,459.245,263.321z"/>
          </g>
          <path style="fill:#FFFFFF;" d="M407.061,272.147v-56.149c0-12.629,10.333-22.962,22.962-22.962h11.061&#10;&#9;&#9;&#9;&#9;&#9;c12.629,0,22.962,10.333,22.962,22.962v39.172c0,12.63-10.333,22.962-22.962,22.962h-28.037&#10;&#9;&#9;&#9;&#9;&#9;C409.755,278.132,407.061,275.439,407.061,272.147z"/>
        </g>
        <g>
          <path style="fill:#FFDEEA;" d="M418.231,239.036L418.231,239.036c0-14.208,11.625-25.833,25.834-25.833h4.351&#10;&#9;&#9;&#9;&#9;&#9;c14.208,0,25.833,11.625,25.833,25.833l0,0c0,14.208-11.625,25.833-25.833,25.833h-4.351&#10;&#9;&#9;&#9;&#9;&#9;C429.856,264.869,418.231,253.244,418.231,239.036z"/>
          <g>
            <path style="fill:#F6D000;" d="M429.767,260.494c0.009,0.007,0.019,0.013,0.028,0.019c-0.012-0.008-0.022-0.016-0.032-0.023&#10;&#9;&#9;&#9;&#9;&#9;&#9;C429.764,260.49,429.765,260.493,429.767,260.494z"/>
            <path style="fill:#F6D000;" d="M449.739,264.837c13.599-0.698,24.51-12.042,24.51-25.806c0-13.764-10.911-25.098-24.509-25.796&#10;&#9;&#9;&#9;&#9;&#9;&#9;c-0.441-0.022-0.885-0.034-1.331-0.034h-4.35c-6.009,0-10.68,1.871-14.169,4.199c-0.043,0.059-0.082,0.119-0.124,0.178&#10;&#9;&#9;&#9;&#9;&#9;&#9;c-9.255,12.771-9.257,30.138-0.004,42.912c0.011,0.008,0.021,0.016,0.032,0.023c3.264,2.401,7.389,4.358,12.183,4.358h6.432&#10;&#9;&#9;&#9;&#9;&#9;&#9;C448.855,264.871,449.299,264.859,449.739,264.837z"/>
          </g>
        </g>
      </g>
      <g>
        <g>
          <path style="fill:#FFFFFF;" d="M148.114,123.683h70.195l3.041-21.641c0-8.747-7.778-15.836-17.373-15.836h-43.6&#10;&#9;&#9;&#9;&#9;&#9;c-9.595,0-17.373,7.09-17.373,15.836L148.114,123.683z"/>
          <g>
            <g>
              <path style="fill:#FFDEEA;" d="M160.354,179.992c0.124,0.188,0.243,0.369,0.366,0.557l3.357,7.488l0.097,0.223l4.092,7.143&#10;&#9;&#9;&#9;&#9;&#9;&#9;&#9;c0.336,0.586,1.083,0.798,1.657,0.463c0.351-0.195,0.559-0.547,0.596-0.924c0.025-0.24-0.021-0.499-0.158-0.729l-2.799-4.883&#10;&#9;&#9;&#9;&#9;&#9;&#9;&#9;c-0.228-0.396-0.088-0.905,0.306-1.123l0.18-0.092c0.385-0.219,0.874-0.075,1.098,0.316l2.713,4.712&#10;&#9;&#9;&#9;&#9;&#9;&#9;&#9;c0.327,0.584,1.073,0.796,1.651,0.467c0.347-0.201,0.564-0.551,0.602-0.929c0.027-0.25-0.031-0.5-0.158-0.728l-2.685-4.672&#10;&#9;&#9;&#9;&#9;&#9;&#9;&#9;c-0.228-0.396-0.095-0.901,0.3-1.119l0.061-0.034c0.389-0.214,0.884-0.073,1.107,0.317l2.769,4.828&#10;&#9;&#9;&#9;&#9;&#9;&#9;&#9;c0.336,0.586,1.083,0.797,1.66,0.469c0.348-0.201,0.559-0.546,0.597-0.924c0.021-0.246-0.026-0.504-0.156-0.738l-2.75-4.79&#10;&#9;&#9;&#9;&#9;&#9;&#9;&#9;c-0.228-0.396-0.094-0.901,0.3-1.119c0.367-0.197,0.822-0.089,1.064,0.255c0.012,0.017,0.022,0.044,0.038,0.067l2.653,4.627&#10;&#9;&#9;&#9;&#9;&#9;&#9;&#9;c0.341,0.582,1.088,0.794,1.665,0.465c0.348-0.202,0.554-0.543,0.591-0.921c0.027-0.249-0.025-0.504-0.156-0.738l-3.965-6.915&#10;&#9;&#9;&#9;&#9;&#9;&#9;&#9;l-0.032-0.046l-0.183-0.308l-0.004-0.006l-3.021-4.924c-0.007-0.021,0.001-0.035,0.016-0.037&#10;&#9;&#9;&#9;&#9;&#9;&#9;&#9;c0.361-0.014,0.707-0.145,1.006-0.39l1.957-1.615c0.374-0.306,0.581-0.742,0.627-1.193c0.042-0.407-0.052-0.829-0.294-1.198&#10;&#9;&#9;&#9;&#9;&#9;&#9;&#9;c-0.602-0.904-1.904-1.008-2.736-0.321l-2.255,1.884l-5.136,0.303c-0.85,0.049-1.68-0.258-2.299-0.851l-2.223-2.121&#10;&#9;&#9;&#9;&#9;&#9;&#9;&#9;l-5.646,6.014L160.354,179.992z"/>
              <path style="fill:#FFDEEA;" d="M180.987,180.273c-0.177,0.106-0.349,0.208-0.526,0.314l-5.788,4.854l-0.17,0.145l-6.257,4.272&#10;&#9;&#9;&#9;&#9;&#9;&#9;&#9;c-0.514,0.351-1.217,0.226-1.558-0.281c-0.212-0.303-0.243-0.677-0.123-1.005c0.076-0.209,0.218-0.404,0.423-0.54l4.279-2.92&#10;&#9;&#9;&#9;&#9;&#9;&#9;&#9;c0.348-0.237,0.437-0.714,0.197-1.053l-0.112-0.148c-0.231-0.336-0.694-0.413-1.036-0.179l-4.139,2.813&#10;&#9;&#9;&#9;&#9;&#9;&#9;&#9;c-0.505,0.353-1.208,0.228-1.555-0.276c-0.206-0.306-0.246-0.683-0.126-1.011c0.079-0.218,0.227-0.401,0.423-0.54l4.1-2.792&#10;&#9;&#9;&#9;&#9;&#9;&#9;&#9;c0.348-0.237,0.441-0.709,0.201-1.047l-0.037-0.052c-0.237-0.333-0.703-0.416-1.045-0.182l-4.232,2.887&#10;&#9;&#9;&#9;&#9;&#9;&#9;&#9;c-0.514,0.35-1.217,0.226-1.563-0.278c-0.207-0.306-0.244-0.678-0.123-1.006c0.081-0.211,0.224-0.407,0.426-0.548l4.201-2.862&#10;&#9;&#9;&#9;&#9;&#9;&#9;&#9;c0.348-0.237,0.44-0.709,0.2-1.047c-0.224-0.311-0.645-0.404-0.983-0.216c-0.017,0.01-0.036,0.027-0.059,0.04l-4.055,2.767&#10;&#9;&#9;&#9;&#9;&#9;&#9;&#9;c-0.517,0.345-1.22,0.221-1.567-0.284c-0.207-0.306-0.24-0.672-0.12-1c0.078-0.217,0.224-0.407,0.425-0.548l6.062-4.135&#10;&#9;&#9;&#9;&#9;&#9;&#9;&#9;l0.045-0.025l0.275-0.182l0.005-0.003l4.48-2.865c0.014-0.015,0.013-0.029,0.001-0.037c-0.293-0.156-0.527-0.404-0.677-0.727&#10;&#9;&#9;&#9;&#9;&#9;&#9;&#9;l-0.972-2.123c-0.187-0.403-0.184-0.849-0.04-1.24c0.128-0.354,0.376-0.666,0.725-0.874c0.861-0.507,1.982-0.07,2.395,0.833&#10;&#9;&#9;&#9;&#9;&#9;&#9;&#9;l1.111,2.466l4.131,2.313c0.684,0.382,1.495,0.461,2.246,0.219l2.692-0.864l2.262,7.248L180.987,180.273z"/>
            </g>
            <g>
              <g>
                <path style="fill:#FFFFFF;" d="M154.87,181.024l-5.633-8.645c-11.53-17.698-14.725-38.616-9.006-58.933l3.282-14.943&#10;&#9;&#9;&#9;&#9;&#9;&#9;&#9;&#9;l17.581,3.862l-3.478,15.747c-4.436,15.536-2.118,30.904,6.702,44.441l5.632,8.646L154.87,181.024z"/>
              </g>
              <g>
                <path style="fill:#FFFFFF;" d="M185.978,183.107l-10.91-14.317l18.673-14.227c5.94-4.526,9.491-11.686,9.499-19.154&#10;&#9;&#9;&#9;&#9;&#9;&#9;&#9;&#9;l0.035-35.005l18,0.019l-0.035,35.005c-0.014,13.044-6.216,25.549-16.591,33.454L185.978,183.107z"/>
              </g>
            </g>
          </g>
        </g>
        <g>
          <path style="fill:#FFDEEA;" d="M182.661,119.975L182.661,119.975c14.208,0,25.833-11.625,25.833-25.834V89.79&#10;&#9;&#9;&#9;&#9;&#9;c0-14.208-11.625-25.833-25.833-25.833l0,0c-14.208,0-25.833,11.625-25.833,25.833v4.351&#10;&#9;&#9;&#9;&#9;&#9;C156.827,108.35,168.452,119.975,182.661,119.975z"/>
          <path style="fill:#5959CE;" d="M182.665,63.995c14.21,0,25.83,11.63,25.83,25.84v4.35c0,9.59-5.48,22.46-14.483,22.46&#10;&#9;&#9;&#9;&#9;&#9;c-23.679,0-23.679-11.7-23.679-11.7s-13.508,3.239-13.508-10.76v-4.35C156.826,75.624,168.456,63.995,182.665,63.995z"/>
        </g>
      </g>
      <g>
        <g>
          <g>
            <path style="fill:#FFDEEA;" d="M138.439,266.319c0.221-0.008,0.434-0.015,0.655-0.022l8.015,1.031l0.237,0.032l8.101,0.224&#10;&#9;&#9;&#9;&#9;&#9;&#9;c0.665,0.018,1.225-0.509,1.238-1.173c0.015-0.401-0.174-0.762-0.472-0.99c-0.189-0.146-0.43-0.241-0.693-0.244l-5.539-0.152&#10;&#9;&#9;&#9;&#9;&#9;&#9;c-0.45-0.012-0.806-0.396-0.787-0.846l0.015-0.201c0.013-0.443,0.385-0.785,0.828-0.772l5.351,0.136&#10;&#9;&#9;&#9;&#9;&#9;&#9;c0.659,0.025,1.219-0.502,1.239-1.166c0.009-0.401-0.174-0.77-0.472-0.998c-0.197-0.152-0.437-0.233-0.693-0.244l-5.303-0.14&#10;&#9;&#9;&#9;&#9;&#9;&#9;c-0.45-0.012-0.806-0.389-0.786-0.839l0.002-0.069c0.02-0.443,0.392-0.792,0.835-0.78l5.477,0.149&#10;&#9;&#9;&#9;&#9;&#9;&#9;c0.665,0.018,1.225-0.51,1.245-1.174c0.009-0.401-0.173-0.762-0.471-0.991c-0.196-0.146-0.437-0.24-0.7-0.251l-5.435-0.145&#10;&#9;&#9;&#9;&#9;&#9;&#9;c-0.45-0.012-0.806-0.389-0.786-0.839c0.021-0.415,0.346-0.748,0.759-0.775c0.021-0.001,0.049,0.004,0.076,0.002l5.248,0.143&#10;&#9;&#9;&#9;&#9;&#9;&#9;c0.665,0.012,1.225-0.516,1.245-1.181c0.009-0.401-0.173-0.755-0.471-0.983c-0.196-0.153-0.437-0.241-0.701-0.251l-7.844-0.214&#10;&#9;&#9;&#9;&#9;&#9;&#9;l-0.055,0.004l-0.353-0.004h-0.007l-5.688,0.018c-0.021-0.006-0.029-0.02-0.023-0.033c0.173-0.315,0.24-0.679,0.188-1.063&#10;&#9;&#9;&#9;&#9;&#9;&#9;l-0.355-2.511c-0.065-0.479-0.326-0.883-0.682-1.156c-0.32-0.248-0.723-0.387-1.157-0.373&#10;&#9;&#9;&#9;&#9;&#9;&#9;c-1.069,0.043-1.824,1.102-1.672,2.169l0.428,2.906l-2.377,4.543c-0.394,0.751-1.078,1.301-1.893,1.521l-2.921,0.794&#10;&#9;&#9;&#9;&#9;&#9;&#9;l2.161,7.951L138.439,266.319z"/>
            <path style="fill:#FFFFFF;" d="M44.434,254.056c-0.145,0.61-0.232,1.241-0.253,1.896c-0.058,1.673,0.322,3.263,1.04,4.659&#10;&#9;&#9;&#9;&#9;&#9;&#9;c1.064,2.078,15.43,12.497,18.875,14.829c7.074,4.789,22.303,10.016,33.268,7.145c6.414-1.68,12.701-4.183,20.753-6.676&#10;&#9;&#9;&#9;&#9;&#9;&#9;l16.615-5.145l0.158-4.712l0.269-8.244l0.202-5.998l-16.076,4.976c-9.072,2.808-15.774,5.683-23.041,7.337&#10;&#9;&#9;&#9;&#9;&#9;&#9;c-9.101,2.07-18.642-0.02-26.218-5.546l-12.602-9.19c-4.508-3.288-11.065-1.392-12.793,3.965&#10;&#9;&#9;&#9;&#9;&#9;&#9;C44.556,253.583,44.491,253.817,44.434,254.056z"/>
          </g>
          <g>
            <path style="fill:#FFDEEA;" d="M140.298,192.744c0.22,0.015,0.434,0.029,0.654,0.045l8.044-0.758l0.238-0.025l8.104,0.051&#10;&#9;&#9;&#9;&#9;&#9;&#9;c0.665,0.004,1.208,0.55,1.199,1.214c0.003,0.402-0.198,0.756-0.503,0.974c-0.194,0.14-0.438,0.226-0.701,0.221l-5.541-0.036&#10;&#9;&#9;&#9;&#9;&#9;&#9;c-0.45-0.004-0.819,0.368-0.814,0.818l0.008,0.202c-0.002,0.443,0.359,0.798,0.802,0.801l5.352,0.045&#10;&#9;&#9;&#9;&#9;&#9;&#9;c0.659-0.003,1.202,0.544,1.2,1.208c-0.005,0.401-0.199,0.763-0.504,0.981c-0.202,0.146-0.444,0.219-0.701,0.221l-5.305-0.04&#10;&#9;&#9;&#9;&#9;&#9;&#9;c-0.45-0.003-0.818,0.361-0.814,0.812v0.07c0.005,0.443,0.365,0.805,0.809,0.808l5.479,0.037&#10;&#9;&#9;&#9;&#9;&#9;&#9;c0.665,0.004,1.208,0.55,1.206,1.215c-0.004,0.401-0.198,0.756-0.504,0.974c-0.2,0.139-0.444,0.226-0.708,0.227l-5.437-0.04&#10;&#9;&#9;&#9;&#9;&#9;&#9;c-0.45-0.003-0.818,0.361-0.813,0.812c0.008,0.417,0.321,0.759,0.733,0.801c0.021,0.002,0.048-0.002,0.076,0.001l5.25,0.035&#10;&#9;&#9;&#9;&#9;&#9;&#9;c0.664,0.011,1.207,0.557,1.205,1.222c-0.004,0.401-0.198,0.749-0.503,0.968c-0.201,0.146-0.445,0.226-0.708,0.227&#10;&#9;&#9;&#9;&#9;&#9;&#9;l-7.847-0.053l-0.054-0.005l-0.353-0.008l-0.007-0.001l-5.684-0.209c-0.021,0.004-0.029,0.018-0.024,0.032&#10;&#9;&#9;&#9;&#9;&#9;&#9;c0.163,0.321,0.217,0.686,0.153,1.067l-0.437,2.498c-0.081,0.477-0.355,0.872-0.72,1.133c-0.328,0.237-0.735,0.362-1.169,0.333&#10;&#9;&#9;&#9;&#9;&#9;&#9;c-1.067-0.08-1.786-1.163-1.6-2.225l0.524-2.89l-2.227-4.621c-0.369-0.764-1.034-1.336-1.842-1.583l-2.894-0.893l2.422-7.873&#10;&#9;&#9;&#9;&#9;&#9;&#9;L140.298,192.744z"/>
            <path style="fill:#FFFFFF;" d="M45.941,201.811c-0.125-0.614-0.191-1.247-0.19-1.902c-0.003-1.674,0.43-3.25,1.193-4.621&#10;&#9;&#9;&#9;&#9;&#9;&#9;c1.132-2.041,15.832-11.967,19.352-14.181c7.228-4.546,22.62-9.253,33.484-6.012c6.356,1.896,12.557,4.611,20.522,7.376&#10;&#9;&#9;&#9;&#9;&#9;&#9;l16.438,5.705l0.002,4.714l-0.002,8.249l0.004,6.002l-15.903-5.518c-8.975-3.114-15.578-6.215-22.787-8.114&#10;&#9;&#9;&#9;&#9;&#9;&#9;c-9.028-2.379-18.632-0.612-26.386,4.653l-12.897,8.757c-4.614,3.133-11.105,1.016-12.656-4.398&#10;&#9;&#9;&#9;&#9;&#9;&#9;C46.048,202.288,45.991,202.051,45.941,201.811z"/>
          </g>
          <path style="fill:#FFFFFF;" d="M82.047,193.318v55.856c0,10.39-8.501,18.892-18.892,18.892h-3.417&#10;&#9;&#9;&#9;&#9;&#9;c-10.391,0-18.892-8.502-18.892-18.892v-41.888c0-10.391,8.501-18.892,18.892-18.892h17.384&#10;&#9;&#9;&#9;&#9;&#9;C79.831,188.394,82.047,190.61,82.047,193.318z"/>
        </g>
        <g>
          <path style="fill:#FFDEEA;" d="M36.17,226.926L36.17,226.926c0-13.025,10.491-23.681,23.313-23.681h3.927&#10;&#9;&#9;&#9;&#9;&#9;c12.822,0,23.313,10.656,23.313,23.681l0,0c0,13.025-10.491,23.682-23.313,23.682h-3.927&#10;&#9;&#9;&#9;&#9;&#9;C46.661,250.608,36.17,239.951,36.17,226.926z"/>
          <path style="fill:#3F3BBA;" d="M79.535,208.535c0-4.903-3.913-8.879-8.74-8.879h-7.167c-15.164,0-27.457,12.487-27.457,27.891&#10;&#9;&#9;&#9;&#9;&#9;l0,0c0,15.404,12.293,27.891,27.457,27.891h7.167c4.827,0,8.74-3.976,8.74-8.879l-3.351-19.633L79.535,208.535z"/>
        </g>
      </g>
      <g>
        <g>
          <path style="fill:#FFDEEA;" d="M190.163,371.038L190.163,371.038c-14.209,0-25.834,11.625-25.834,25.833v4.352&#10;&#9;&#9;&#9;&#9;&#9;c0,14.208,11.625,25.833,25.834,25.833l0,0c14.208,0,25.833-11.625,25.833-25.833v-4.352&#10;&#9;&#9;&#9;&#9;&#9;C215.997,382.663,204.372,371.038,190.163,371.038z"/>
          <path style="fill:#FC526B;" d="M211.622,382.573c0.006,0.009,0.012,0.019,0.018,0.027c-0.008-0.011-0.016-0.02-0.024-0.031&#10;&#9;&#9;&#9;&#9;&#9;C211.618,382.57,211.62,382.571,211.622,382.573z"/>
        </g>
        <g>
          <path style="fill:#F6D000;" d="M215.994,394.783v6.43c0,0.45-0.01,0.891-0.03,1.33c-0.7,13.6-12.04,24.51-25.81,24.51&#10;&#9;&#9;&#9;&#9;&#9;c-13.76,0-25.09-10.91-25.79-24.51c-0.02-0.44-0.04-0.88-0.04-1.33v-4.35c0-3.84,0.77-7.13,1.94-9.92&#10;&#9;&#9;&#9;&#9;&#9;c0.01-0.04,0.05-0.12,0.1-0.23c0.03-0.06,0.06-0.13,0.1-0.21c0.28-0.58,0.84-1.689,1.6-3.07&#10;&#9;&#9;&#9;&#9;&#9;c2.36-4.239,6.73-11.119,11.56-13.659c0,0-0.29,1.65,0.22,2.96c2.8-2.33,6.09-4.2,9.35-3.96c0,0-3.45,4.119,0.53,6.22&#10;&#9;&#9;&#9;&#9;&#9;c8.09-0.48,16.04,1.78,21.89,7.58c0.01,0.01,0.02,0.02,0.03,0.03C214.044,385.863,215.994,389.993,215.994,394.783z"/>
          <path style="fill:#F6D000;" d="M168.064,383.433c-0.76,1.381-1.32,2.49-1.6,3.07&#10;&#9;&#9;&#9;&#9;&#9;C166.944,385.393,167.484,384.373,168.064,383.433z"/>
        </g>
      </g>
    </g>
  </g>
</svg>